<?xml version="1.0" encoding="UTF-8"?>
<svg version="1.1" xmlns="http://www.w3.org/2000/svg" width="1200" height="1200">
<path d="M0 0 C1.32 0 2.64 0 4 0 C4 3.3 4 6.6 4 10 C4.66 10 5.32 10 6 10 C6 10.66 6 11.32 6 12 C5.34 12 4.68 12 4 12 C4 15.3 4 18.6 4 22 C4.66 22 5.32 22 6 22 C6 22.66 6 23.32 6 24 C5.34 24 4.68 24 4 24 C4 26.64 4 29.28 4 32 C3.34 32 2.68 32 2 32 C2 33.32 2 34.64 2 36 C1.34 36 0.68 36 0 36 C0 36.66 0 37.32 0 38 C-0.66 38 -1.32 38 -2 38 C-2 39.32 -2 40.64 -2 42 C-2.66 42 -3.32 42 -4 42 C-4 42.66 -4 43.32 -4 44 C-4.66 44 -5.32 44 -6 44 C-6 44.66 -6 45.32 -6 46 C-6.66 46 -7.32 46 -8 46 C-8 46.66 -8 47.32 -8 48 C-8.66 48 -9.32 48 -10 48 C-10 48.66 -10 49.32 -10 50 C-10.66 50 -11.32 50 -12 50 C-12 50.66 -12 51.32 -12 52 C-13.32 52 -14.64 52 -16 52 C-16 52.66 -16 53.32 -16 54 C-17.32 54 -18.64 54 -20 54 C-20 54.66 -20 55.32 -20 56 C-21.32 56 -22.64 56 -24 56 C-24 57.32 -24 58.64 -24 60 C-24.66 60 -25.32 60 -26 60 C-26 59.34 -26 58.68 -26 58 C-26.66 58 -27.32 58 -28 58 C-28 58.66 -28 59.32 -28 60 C-29.32 60 -30.64 60 -32 60 C-32 60.66 -32 61.32 -32 62 C-33.32 62 -34.64 62 -36 62 C-36 62.66 -36 63.32 -36 64 C-37.32 64 -38.64 64 -40 64 C-40 64.66 -40 65.32 -40 66 C-41.32 66 -42.64 66 -44 66 C-44 66.66 -44 67.32 -44 68 C-45.32 68 -46.64 68 -48 68 C-48 68.66 -48 69.32 -48 70 C-49.32 70 -50.64 70 -52 70 C-52 70.66 -52 71.32 -52 72 C-53.32 72 -54.64 72 -56 72 C-56 72.66 -56 73.32 -56 74 C-57.32 74 -58.64 74 -60 74 C-60 74.66 -60 75.32 -60 76 C-61.32 76 -62.64 76 -64 76 C-64 76.66 -64 77.32 -64 78 C-65.32 78 -66.64 78 -68 78 C-68 78.66 -68 79.32 -68 80 C-69.32 80 -70.64 80 -72 80 C-72 80.66 -72 81.32 -72 82 C-73.32 82 -74.64 82 -76 82 C-76 82.66 -76 83.32 -76 84 C-76.66 84 -77.32 84 -78 84 C-78 84.66 -78 85.32 -78 86 C-79.32 86 -80.64 86 -82 86 C-82 86.66 -82 87.32 -82 88 C-82.66 88 -83.32 88 -84 88 C-84 88.66 -84 89.32 -84 90 C-84.66 90 -85.32 90 -86 90 C-86 90.66 -86 91.32 -86 92 C-86.66 92 -87.32 92 -88 92 C-88 93.32 -88 94.64 -88 96 C-88.66 96 -89.32 96 -90 96 C-90 97.98 -90 99.96 -90 102 C-88.68 102 -87.36 102 -86 102 C-86 101.34 -86 100.68 -86 100 C-84.68 100 -83.36 100 -82 100 C-82 99.34 -82 98.68 -82 98 C-80.68 98 -79.36 98 -78 98 C-78 97.34 -78 96.68 -78 96 C-76.68 96 -75.36 96 -74 96 C-74 95.34 -74 94.68 -74 94 C-72.68 94 -71.36 94 -70 94 C-70 93.34 -70 92.68 -70 92 C-68.68 92 -67.36 92 -66 92 C-66 91.34 -66 90.68 -66 90 C-64.68 90 -63.36 90 -62 90 C-62 89.34 -62 88.68 -62 88 C-60.68 88 -59.36 88 -58 88 C-58 87.34 -58 86.68 -58 86 C-56.68 86 -55.36 86 -54 86 C-54 84.68 -54 83.36 -54 82 C-53.34 82 -52.68 82 -52 82 C-52 81.34 -52 80.68 -52 80 C-51.34 80 -50.68 80 -50 80 C-50 80.66 -50 81.32 -50 82 C-48.68 82 -47.36 82 -46 82 C-46 81.34 -46 80.68 -46 80 C-44.68 80 -43.36 80 -42 80 C-42 79.34 -42 78.68 -42 78 C-40.68 78 -39.36 78 -38 78 C-38 77.34 -38 76.68 -38 76 C-36.68 76 -35.36 76 -34 76 C-34 75.34 -34 74.68 -34 74 C-32.68 74 -31.36 74 -30 74 C-30 72.68 -30 71.36 -30 70 C-29.34 70 -28.68 70 -28 70 C-28 70.66 -28 71.32 -28 72 C-27.34 72 -26.68 72 -26 72 C-26 71.34 -26 70.68 -26 70 C-24.68 70 -23.36 70 -22 70 C-22 69.34 -22 68.68 -22 68 C-20.68 68 -19.36 68 -18 68 C-18 67.34 -18 66.68 -18 66 C-16.68 66 -15.36 66 -14 66 C-14 65.34 -14 64.68 -14 64 C-12.68 64 -11.36 64 -10 64 C-10 63.34 -10 62.68 -10 62 C-8.68 62 -7.36 62 -6 62 C-6 61.34 -6 60.68 -6 60 C-4.68 60 -3.36 60 -2 60 C-2 59.34 -2 58.68 -2 58 C-0.02 58 1.96 58 4 58 C4 67.9 4 77.8 4 88 C3.34 88 2.68 88 2 88 C2 89.32 2 90.64 2 92 C1.34 92 0.68 92 0 92 C0 93.32 0 94.64 0 96 C-0.66 96 -1.32 96 -2 96 C-2 96.66 -2 97.32 -2 98 C-2.66 98 -3.32 98 -4 98 C-4 99.32 -4 100.64 -4 102 C-4.66 102 -5.32 102 -6 102 C-6 102.66 -6 103.32 -6 104 C-6.66 104 -7.32 104 -8 104 C-8 104.66 -8 105.32 -8 106 C-9.32 106 -10.64 106 -12 106 C-12 106.66 -12 107.32 -12 108 C-12.66 108 -13.32 108 -14 108 C-14 108.66 -14 109.32 -14 110 C-15.32 110 -16.64 110 -18 110 C-18 110.66 -18 111.32 -18 112 C-19.32 112 -20.64 112 -22 112 C-22 112.66 -22 113.32 -22 114 C-23.32 114 -24.64 114 -26 114 C-26 114.66 -26 115.32 -26 116 C-27.32 116 -28.64 116 -30 116 C-30 116.66 -30 117.32 -30 118 C-31.32 118 -32.64 118 -34 118 C-34 119.32 -34 120.64 -34 122 C-34.66 122 -35.32 122 -36 122 C-36 121.34 -36 120.68 -36 120 C-36.66 120 -37.32 120 -38 120 C-38 120.66 -38 121.32 -38 122 C-39.32 122 -40.64 122 -42 122 C-42 122.66 -42 123.32 -42 124 C-43.32 124 -44.64 124 -46 124 C-46 124.66 -46 125.32 -46 126 C-47.32 126 -48.64 126 -50 126 C-50 126.66 -50 127.32 -50 128 C-51.32 128 -52.64 128 -54 128 C-54 128.66 -54 129.32 -54 130 C-55.32 130 -56.64 130 -58 130 C-58 130.66 -58 131.32 -58 132 C-59.32 132 -60.64 132 -62 132 C-62 132.66 -62 133.32 -62 134 C-63.32 134 -64.64 134 -66 134 C-66 134.66 -66 135.32 -66 136 C-67.32 136 -68.64 136 -70 136 C-70 136.66 -70 137.32 -70 138 C-71.32 138 -72.64 138 -74 138 C-74 138.66 -74 139.32 -74 140 C-75.32 140 -76.64 140 -78 140 C-78 140.66 -78 141.32 -78 142 C-79.32 142 -80.64 142 -82 142 C-82 142.66 -82 143.32 -82 144 C-82.66 144 -83.32 144 -84 144 C-84 145.32 -84 146.64 -84 148 C-84.66 148 -85.32 148 -86 148 C-86 149.32 -86 150.64 -86 152 C-86.66 152 -87.32 152 -88 152 C-88 152.66 -88 153.32 -88 154 C-88.66 154 -89.32 154 -90 154 C-90 157.3 -90 160.6 -90 164 C-91.98 164 -93.96 164 -96 164 C-96 163.34 -96 162.68 -96 162 C-96.66 162 -97.32 162 -98 162 C-98 160.68 -98 159.36 -98 158 C-98.66 158 -99.32 158 -100 158 C-100 157.34 -100 156.68 -100 156 C-100.66 156 -101.32 156 -102 156 C-102 154.68 -102 153.36 -102 152 C-102.66 152 -103.32 152 -104 152 C-104 150.68 -104 149.36 -104 148 C-104.66 148 -105.32 148 -106 148 C-106 146.02 -106 144.04 -106 142 C-106.66 142 -107.32 142 -108 142 C-108 137.38 -108 132.76 -108 128 C-107.34 128 -106.68 128 -106 128 C-106 125.36 -106 122.72 -106 120 C-105.34 120 -104.68 120 -104 120 C-104 119.34 -104 118.68 -104 118 C-103.34 118 -102.68 118 -102 118 C-102 116.68 -102 115.36 -102 114 C-101.34 114 -100.68 114 -100 114 C-100 113.34 -100 112.68 -100 112 C-99.34 112 -98.68 112 -98 112 C-98 110.68 -98 109.36 -98 108 C-97.34 108 -96.68 108 -96 108 C-96 106.68 -96 105.36 -96 104 C-96.66 104 -97.32 104 -98 104 C-98 103.34 -98 102.68 -98 102 C-98.66 102 -99.32 102 -100 102 C-100 101.34 -100 100.68 -100 100 C-100.66 100 -101.32 100 -102 100 C-102 98.68 -102 97.36 -102 96 C-102.66 96 -103.32 96 -104 96 C-104 95.34 -104 94.68 -104 94 C-104.66 94 -105.32 94 -106 94 C-106 91.36 -106 88.72 -106 86 C-106.66 86 -107.32 86 -108 86 C-108 80.72 -108 75.44 -108 70 C-107.34 70 -106.68 70 -106 70 C-106 68.02 -106 66.04 -106 64 C-105.34 64 -104.68 64 -104 64 C-104 62.68 -104 61.36 -104 60 C-103.34 60 -102.68 60 -102 60 C-102 58.68 -102 57.36 -102 56 C-101.34 56 -100.68 56 -100 56 C-100 55.34 -100 54.68 -100 54 C-99.34 54 -98.68 54 -98 54 C-98 53.34 -98 52.68 -98 52 C-97.34 52 -96.68 52 -96 52 C-96 51.34 -96 50.68 -96 50 C-95.34 50 -94.68 50 -94 50 C-94 49.34 -94 48.68 -94 48 C-93.34 48 -92.68 48 -92 48 C-92 46.68 -92 45.36 -92 44 C-91.34 44 -90.68 44 -90 44 C-90 44.66 -90 45.32 -90 46 C-89.34 46 -88.68 46 -88 46 C-88 45.34 -88 44.68 -88 44 C-86.68 44 -85.36 44 -84 44 C-84 43.34 -84 42.68 -84 42 C-82.68 42 -81.36 42 -80 42 C-80 41.34 -80 40.68 -80 40 C-78.68 40 -77.36 40 -76 40 C-76 39.34 -76 38.68 -76 38 C-74.68 38 -73.36 38 -72 38 C-72 37.34 -72 36.68 -72 36 C-70.68 36 -69.36 36 -68 36 C-68 35.34 -68 34.68 -68 34 C-66.68 34 -65.36 34 -64 34 C-64 33.34 -64 32.68 -64 32 C-62.68 32 -61.36 32 -60 32 C-60 31.34 -60 30.68 -60 30 C-58.68 30 -57.36 30 -56 30 C-56 29.34 -56 28.68 -56 28 C-54.68 28 -53.36 28 -52 28 C-52 27.34 -52 26.68 -52 26 C-50.68 26 -49.36 26 -48 26 C-48 25.34 -48 24.68 -48 24 C-46.68 24 -45.36 24 -44 24 C-44 23.34 -44 22.68 -44 22 C-42.68 22 -41.36 22 -40 22 C-40 21.34 -40 20.68 -40 20 C-38.68 20 -37.36 20 -36 20 C-36 19.34 -36 18.68 -36 18 C-34.68 18 -33.36 18 -32 18 C-32 17.34 -32 16.68 -32 16 C-30.68 16 -29.36 16 -28 16 C-28 15.34 -28 14.68 -28 14 C-26.68 14 -25.36 14 -24 14 C-24 13.34 -24 12.68 -24 12 C-22.68 12 -21.36 12 -20 12 C-20 11.34 -20 10.68 -20 10 C-18.68 10 -17.36 10 -16 10 C-16 9.34 -16 8.68 -16 8 C-14.68 8 -13.36 8 -12 8 C-12 7.34 -12 6.68 -12 6 C-10.68 6 -9.36 6 -8 6 C-8 5.34 -8 4.68 -8 4 C-6.68 4 -5.36 4 -4 4 C-4 3.34 -4 2.68 -4 2 C-2.68 2 -1.36 2 0 2 C0 1.34 0 0.68 0 0 Z M-92 102 C-92 102.66 -92 103.32 -92 104 C-91.34 104 -90.68 104 -90 104 C-90 103.34 -90 102.68 -90 102 C-90.66 102 -91.32 102 -92 102 Z " fill="#000000" transform="translate(452,524)"/>
<path d="M0 0 C1.98 0 3.96 0 6 0 C6 5.28 6 10.56 6 16 C8.64 16 11.28 16 14 16 C14 16.66 14 17.32 14 18 C14.66 18 15.32 18 16 18 C16 17.34 16 16.68 16 16 C20.62 16 25.24 16 30 16 C30 16.66 30 17.32 30 18 C30.66 18 31.32 18 32 18 C32 17.34 32 16.68 32 16 C33.32 16 34.64 16 36 16 C36 15.34 36 14.68 36 14 C38.64 14 41.28 14 44 14 C44 14.66 44 15.32 44 16 C46.64 16 49.28 16 52 16 C52 15.34 52 14.68 52 14 C52.66 14 53.32 14 54 14 C54 14.66 54 15.32 54 16 C56.64 16 59.28 16 62 16 C62 17.32 62 18.64 62 20 C62.66 20 63.32 20 64 20 C64 18.68 64 17.36 64 16 C64.66 16 65.32 16 66 16 C66 15.34 66 14.68 66 14 C66.66 14 67.32 14 68 14 C68 14.66 68 15.32 68 16 C71.96 16 75.92 16 80 16 C80 16.66 80 17.32 80 18 C80.66 18 81.32 18 82 18 C82 18.66 82 19.32 82 20 C82.66 20 83.32 20 84 20 C84 20.66 84 21.32 84 22 C84.66 22 85.32 22 86 22 C86 23.32 86 24.64 86 26 C86.66 26 87.32 26 88 26 C88 25.34 88 24.68 88 24 C88.66 24 89.32 24 90 24 C90 23.34 90 22.68 90 22 C90.66 22 91.32 22 92 22 C92 21.34 92 20.68 92 20 C92.66 20 93.32 20 94 20 C94 19.34 94 18.68 94 18 C94.66 18 95.32 18 96 18 C96 17.34 96 16.68 96 16 C100.62 16 105.24 16 110 16 C110 15.34 110 14.68 110 14 C110.66 14 111.32 14 112 14 C112 14.66 112 15.32 112 16 C112.66 16 113.32 16 114 16 C114 16.66 114 17.32 114 18 C113.34 18 112.68 18 112 18 C112 18.66 112 19.32 112 20 C111.34 20 110.68 20 110 20 C110 21.32 110 22.64 110 24 C109.34 24 108.68 24 108 24 C108 25.32 108 26.64 108 28 C106.68 28 105.36 28 104 28 C104 29.32 104 30.64 104 32 C103.34 32 102.68 32 102 32 C102 32.66 102 33.32 102 34 C101.34 34 100.68 34 100 34 C100 35.32 100 36.64 100 38 C99.34 38 98.68 38 98 38 C98 39.32 98 40.64 98 42 C98.66 42 99.32 42 100 42 C100 42.66 100 43.32 100 44 C100.66 44 101.32 44 102 44 C102 45.32 102 46.64 102 48 C102.66 48 103.32 48 104 48 C104 48.66 104 49.32 104 50 C104.66 50 105.32 50 106 50 C106 51.32 106 52.64 106 54 C107.32 54 108.64 54 110 54 C110 55.32 110 56.64 110 58 C110.66 58 111.32 58 112 58 C112 59.32 112 60.64 112 62 C112.66 62 113.32 62 114 62 C114 62.66 114 63.32 114 64 C113.34 64 112.68 64 112 64 C112 64.66 112 65.32 112 66 C106.72 66 101.44 66 96 66 C96 65.34 96 64.68 96 64 C95.34 64 94.68 64 94 64 C94 62.68 94 61.36 94 60 C93.34 60 92.68 60 92 60 C92 59.34 92 58.68 92 58 C91.34 58 90.68 58 90 58 C90 56.68 90 55.36 90 54 C88.68 54 87.36 54 86 54 C86 54.66 86 55.32 86 56 C85.34 56 84.68 56 84 56 C84 57.32 84 58.64 84 60 C83.34 60 82.68 60 82 60 C82 60.66 82 61.32 82 62 C81.34 62 80.68 62 80 62 C80 63.32 80 64.64 80 66 C68.78 66 57.56 66 46 66 C46 54.12 46 42.24 46 30 C42.7 30 39.4 30 36 30 C36 30.66 36 31.32 36 32 C35.34 32 34.68 32 34 32 C34 32.66 34 33.32 34 34 C33.34 34 32.68 34 32 34 C32 35.32 32 36.64 32 38 C32.66 38 33.32 38 34 38 C34 38.66 34 39.32 34 40 C33.34 40 32.68 40 32 40 C32 44.62 32 49.24 32 54 C32.66 54 33.32 54 34 54 C34 54.66 34 55.32 34 56 C33.34 56 32.68 56 32 56 C32 58.64 32 61.28 32 64 C31.34 64 30.68 64 30 64 C30 64.66 30 65.32 30 66 C24.06 66 18.12 66 12 66 C12 66.66 12 67.32 12 68 C11.34 68 10.68 68 10 68 C10 67.34 10 66.68 10 66 C5.38 66 0.76 66 -4 66 C-4 65.34 -4 64.68 -4 64 C-4.66 64 -5.32 64 -6 64 C-6 63.34 -6 62.68 -6 62 C-7.98 62 -9.96 62 -12 62 C-12 61.34 -12 60.68 -12 60 C-10.68 60 -9.36 60 -8 60 C-8 58.68 -8 57.36 -8 56 C-8.66 56 -9.32 56 -10 56 C-10 46.76 -10 37.52 -10 28 C-11.32 28 -12.64 28 -14 28 C-14 39.88 -14 51.76 -14 64 C-14.66 64 -15.32 64 -16 64 C-16 64.66 -16 65.32 -16 66 C-20.62 66 -25.24 66 -30 66 C-30 64.68 -30 63.36 -30 62 C-30.66 62 -31.32 62 -32 62 C-32 62.66 -32 63.32 -32 64 C-32.66 64 -33.32 64 -34 64 C-34 64.66 -34 65.32 -34 66 C-39.94 66 -45.88 66 -52 66 C-52 65.34 -52 64.68 -52 64 C-53.32 64 -54.64 64 -56 64 C-56 63.34 -56 62.68 -56 62 C-56.66 62 -57.32 62 -58 62 C-58 60.68 -58 59.36 -58 58 C-58.66 58 -59.32 58 -60 58 C-60 56.02 -60 54.04 -60 52 C-60.66 52 -61.32 52 -62 52 C-62 42.1 -62 32.2 -62 22 C-62.66 22 -63.32 22 -64 22 C-64 21.34 -64 20.68 -64 20 C-63.34 20 -62.68 20 -62 20 C-62 18.68 -62 17.36 -62 16 C-56.72 16 -51.44 16 -46 16 C-46 25.9 -46 35.8 -46 46 C-45.34 46 -44.68 46 -44 46 C-44 48.64 -44 51.28 -44 54 C-40.7 54 -37.4 54 -34 54 C-34 53.34 -34 52.68 -34 52 C-33.34 52 -32.68 52 -32 52 C-32 49.36 -32 46.72 -32 44 C-31.34 44 -30.68 44 -30 44 C-30 35.42 -30 26.84 -30 18 C-30.66 18 -31.32 18 -32 18 C-32 17.34 -32 16.68 -32 16 C-28.7 16 -25.4 16 -22 16 C-22 15.34 -22 14.68 -22 14 C-20.68 14 -19.36 14 -18 14 C-18 14.66 -18 15.32 -18 16 C-15.36 16 -12.72 16 -10 16 C-10 14.68 -10 13.36 -10 12 C-10.66 12 -11.32 12 -12 12 C-12 11.34 -12 10.68 -12 10 C-11.34 10 -10.68 10 -10 10 C-10 9.34 -10 8.68 -10 8 C-9.34 8 -8.68 8 -8 8 C-8 7.34 -8 6.68 -8 6 C-7.34 6 -6.68 6 -6 6 C-6 5.34 -6 4.68 -6 4 C-4.68 4 -3.36 4 -2 4 C-2 3.34 -2 2.68 -2 2 C-1.34 2 -0.68 2 0 2 C0 1.34 0 0.68 0 0 Z M62 22 C62 34.54 62 47.08 62 60 C62.66 60 63.32 60 64 60 C64 59.34 64 58.68 64 58 C64.66 58 65.32 58 66 58 C66 57.34 66 56.68 66 56 C66.66 56 67.32 56 68 56 C68 55.34 68 54.68 68 54 C68.66 54 69.32 54 70 54 C70 52.68 70 51.36 70 50 C70.66 50 71.32 50 72 50 C72 49.34 72 48.68 72 48 C72.66 48 73.32 48 74 48 C74 46.68 74 45.36 74 44 C74.66 44 75.32 44 76 44 C76 43.34 76 42.68 76 42 C76.66 42 77.32 42 78 42 C78 40.68 78 39.36 78 38 C76.68 38 75.36 38 74 38 C74 36.02 74 34.04 74 32 C73.34 32 72.68 32 72 32 C72 31.34 72 30.68 72 30 C71.34 30 70.68 30 70 30 C70 28.68 70 27.36 70 26 C69.34 26 68.68 26 68 26 C68 25.34 68 24.68 68 24 C67.34 24 66.68 24 66 24 C66 23.34 66 22.68 66 22 C64.68 22 63.36 22 62 22 Z M46 26 C46 26.66 46 27.32 46 28 C46.66 28 47.32 28 48 28 C48 27.34 48 26.68 48 26 C47.34 26 46.68 26 46 26 Z M14 26 C14 26.66 14 27.32 14 28 C11.36 28 8.72 28 6 28 C6 35.92 6 43.84 6 52 C6.66 52 7.32 52 8 52 C8 52.66 8 53.32 8 54 C9.32 54 10.64 54 12 54 C12 53.34 12 52.68 12 52 C12.66 52 13.32 52 14 52 C14 52.66 14 53.32 14 54 C14.66 54 15.32 54 16 54 C16 44.76 16 35.52 16 26 C15.34 26 14.68 26 14 26 Z " fill="#F1D04F" transform="translate(644,610)"/>
<path d="M0 0 C5.28 0 10.56 0 16 0 C16 0.66 16 1.32 16 2 C15.34 2 14.68 2 14 2 C14 9.92 14 17.84 14 26 C14.66 26 15.32 26 16 26 C16 26.66 16 27.32 16 28 C15.34 28 14.68 28 14 28 C14 41.86 14 55.72 14 70 C9.38 70 4.76 70 0 70 C0 68.68 0 67.36 0 66 C-1.32 66 -2.64 66 -4 66 C-4 66.66 -4 67.32 -4 68 C-5.32 68 -6.64 68 -8 68 C-8 68.66 -8 69.32 -8 70 C-11.96 70 -15.92 70 -20 70 C-20 69.34 -20 68.68 -20 68 C-21.32 68 -22.64 68 -24 68 C-24 67.34 -24 66.68 -24 66 C-24.66 66 -25.32 66 -26 66 C-26 65.34 -26 64.68 -26 64 C-26.66 64 -27.32 64 -28 64 C-28 63.34 -28 62.68 -28 62 C-28.66 62 -29.32 62 -30 62 C-30 61.34 -30 60.68 -30 60 C-30.66 60 -31.32 60 -32 60 C-32 58.68 -32 57.36 -32 56 C-33.32 56 -34.64 56 -36 56 C-36 59.96 -36 63.92 -36 68 C-36.66 68 -37.32 68 -38 68 C-38 68.66 -38 69.32 -38 70 C-41.96 70 -45.92 70 -50 70 C-50 69.34 -50 68.68 -50 68 C-50.66 68 -51.32 68 -52 68 C-52 67.34 -52 66.68 -52 66 C-53.32 66 -54.64 66 -56 66 C-56 66.66 -56 67.32 -56 68 C-57.32 68 -58.64 68 -60 68 C-60 68.66 -60 69.32 -60 70 C-61.32 70 -62.64 70 -64 70 C-64 70.66 -64 71.32 -64 72 C-64.66 72 -65.32 72 -66 72 C-66 71.34 -66 70.68 -66 70 C-67.32 70 -68.64 70 -70 70 C-70 70.66 -70 71.32 -70 72 C-70.66 72 -71.32 72 -72 72 C-72 70.68 -72 69.36 -72 68 C-73.32 68 -74.64 68 -76 68 C-76 67.34 -76 66.68 -76 66 C-76.66 66 -77.32 66 -78 66 C-78 65.34 -78 64.68 -78 64 C-78.66 64 -79.32 64 -80 64 C-80 63.34 -80 62.68 -80 62 C-80.66 62 -81.32 62 -82 62 C-82 59.36 -82 56.72 -82 54 C-82.66 54 -83.32 54 -84 54 C-84 42.78 -84 31.56 -84 20 C-83.34 20 -82.68 20 -82 20 C-82 19.34 -82 18.68 -82 18 C-77.38 18 -72.76 18 -68 18 C-68 29.22 -68 40.44 -68 52 C-67.34 52 -66.68 52 -66 52 C-66 53.32 -66 54.64 -66 56 C-65.34 56 -64.68 56 -64 56 C-64 56.66 -64 57.32 -64 58 C-62.02 58 -60.04 58 -58 58 C-58 56.68 -58 55.36 -58 54 C-56.68 54 -55.36 54 -54 54 C-54 52.68 -54 51.36 -54 50 C-53.34 50 -52.68 50 -52 50 C-52 39.44 -52 28.88 -52 18 C-47.38 18 -42.76 18 -38 18 C-38 18.66 -38 19.32 -38 20 C-37.34 20 -36.68 20 -36 20 C-36 23.3 -36 26.6 -36 30 C-35.34 30 -34.68 30 -34 30 C-34 30.66 -34 31.32 -34 32 C-33.34 32 -32.68 32 -32 32 C-32 30.68 -32 29.36 -32 28 C-31.34 28 -30.68 28 -30 28 C-30 26.68 -30 25.36 -30 24 C-28.68 24 -27.36 24 -26 24 C-26 23.34 -26 22.68 -26 22 C-25.34 22 -24.68 22 -24 22 C-24 21.34 -24 20.68 -24 20 C-22.68 20 -21.36 20 -20 20 C-20 19.34 -20 18.68 -20 18 C-15.38 18 -10.76 18 -6 18 C-6 18.66 -6 19.32 -6 20 C-4.68 20 -3.36 20 -2 20 C-2 14.06 -2 8.12 -2 2 C-1.34 2 -0.68 2 0 2 C0 1.34 0 0.68 0 0 Z M-12 30 C-12 30.66 -12 31.32 -12 32 C-13.32 32 -14.64 32 -16 32 C-16 32.66 -16 33.32 -16 34 C-16.66 34 -17.32 34 -18 34 C-18 39.94 -18 45.88 -18 52 C-17.34 52 -16.68 52 -16 52 C-16 53.32 -16 54.64 -16 56 C-14.68 56 -13.36 56 -12 56 C-12 56.66 -12 57.32 -12 58 C-10.68 58 -9.36 58 -8 58 C-8 57.34 -8 56.68 -8 56 C-6.68 56 -5.36 56 -4 56 C-4 55.34 -4 54.68 -4 54 C-3.34 54 -2.68 54 -2 54 C-2 50.7 -2 47.4 -2 44 C-1.34 44 -0.68 44 0 44 C0 43.34 0 42.68 0 42 C-0.66 42 -1.32 42 -2 42 C-2 39.36 -2 36.72 -2 34 C-2.66 34 -3.32 34 -4 34 C-4 33.34 -4 32.68 -4 32 C-4.66 32 -5.32 32 -6 32 C-6 31.34 -6 30.68 -6 30 C-7.98 30 -9.96 30 -12 30 Z M-36 32 C-36 39.26 -36 46.52 -36 54 C-35.34 54 -34.68 54 -34 54 C-34 46.74 -34 39.48 -34 32 C-34.66 32 -35.32 32 -36 32 Z " fill="#020100" transform="translate(620,530)"/>
<path d="M0 0 C3.96 0 7.92 0 12 0 C12 0.66 12 1.32 12 2 C13.98 2 15.96 2 18 2 C18 1.34 18 0.68 18 0 C21.3 0 24.6 0 28 0 C28 0.66 28 1.32 28 2 C29.32 2 30.64 2 32 2 C32 3.32 32 4.64 32 6 C32.66 6 33.32 6 34 6 C34 4.68 34 3.36 34 2 C35.98 2 37.96 2 40 2 C40 1.34 40 0.68 40 0 C47.26 0 54.52 0 62 0 C62 0.66 62 1.32 62 2 C63.32 2 64.64 2 66 2 C66 2.66 66 3.32 66 4 C66.66 4 67.32 4 68 4 C68 4.66 68 5.32 68 6 C68.66 6 69.32 6 70 6 C70 7.32 70 8.64 70 10 C70.66 10 71.32 10 72 10 C72 21.88 72 33.76 72 46 C72.66 46 73.32 46 74 46 C74 47.98 74 49.96 74 52 C69.38 52 64.76 52 60 52 C60 51.34 60 50.68 60 50 C59.34 50 58.68 50 58 50 C58 49.34 58 48.68 58 48 C57.34 48 56.68 48 56 48 C56 48.66 56 49.32 56 50 C54.68 50 53.36 50 52 50 C52 51.32 52 52.64 52 54 C51.34 54 50.68 54 50 54 C50 53.34 50 52.68 50 52 C45.38 52 40.76 52 36 52 C36 51.34 36 50.68 36 50 C35.34 50 34.68 50 34 50 C34 49.34 34 48.68 34 48 C33.34 48 32.68 48 32 48 C32 47.34 32 46.68 32 46 C31.34 46 30.68 46 30 46 C30 45.34 30 44.68 30 44 C29.34 44 28.68 44 28 44 C28 42.68 28 41.36 28 40 C27.34 40 26.68 40 26 40 C26 38.02 26 36.04 26 34 C26.66 34 27.32 34 28 34 C28 32.68 28 31.36 28 30 C28.66 30 29.32 30 30 30 C30 28.68 30 27.36 30 26 C30.66 26 31.32 26 32 26 C32 25.34 32 24.68 32 24 C33.32 24 34.64 24 36 24 C36 23.34 36 22.68 36 22 C37.98 22 39.96 22 42 22 C42 21.34 42 20.68 42 20 C45.3 20 48.6 20 52 20 C52 19.34 52 18.68 52 18 C53.32 18 54.64 18 56 18 C56 16.68 56 15.36 56 14 C55.34 14 54.68 14 54 14 C54 13.34 54 12.68 54 12 C51.36 12 48.72 12 46 12 C46 12.66 46 13.32 46 14 C45.34 14 44.68 14 44 14 C44 14.66 44 15.32 44 16 C43.34 16 42.68 16 42 16 C42 16.66 42 17.32 42 18 C39.36 18 36.72 18 34 18 C34 17.34 34 16.68 34 16 C30.7 16 27.4 16 24 16 C24 15.34 24 14.68 24 14 C22.68 14 21.36 14 20 14 C20 14.66 20 15.32 20 16 C18.68 16 17.36 16 16 16 C16 17.98 16 19.96 16 22 C15.34 22 14.68 22 14 22 C14 31.9 14 41.8 14 52 C9.38 52 4.76 52 0 52 C0 51.34 0 50.68 0 50 C-0.66 50 -1.32 50 -2 50 C-2 34.16 -2 18.32 -2 2 C-1.34 2 -0.68 2 0 2 C0 1.34 0 0.68 0 0 Z M48 30 C48 30.66 48 31.32 48 32 C46.68 32 45.36 32 44 32 C44 32.66 44 33.32 44 34 C43.34 34 42.68 34 42 34 C42 34.66 42 35.32 42 36 C42.66 36 43.32 36 44 36 C44 37.32 44 38.64 44 40 C46.64 40 49.28 40 52 40 C52 39.34 52 38.68 52 38 C52.66 38 53.32 38 54 38 C54 37.34 54 36.68 54 36 C54.66 36 55.32 36 56 36 C56 34.02 56 32.04 56 30 C53.36 30 50.72 30 48 30 Z " fill="#030301" transform="translate(640,548)"/>
<path d="M0 0 C0.66 0 1.32 0 2 0 C2 1.32 2 2.64 2 4 C4.64 4 7.28 4 10 4 C10 4.66 10 5.32 10 6 C11.32 6 12.64 6 14 6 C14 6.66 14 7.32 14 8 C14.66 8 15.32 8 16 8 C16 8.66 16 9.32 16 10 C16.66 10 17.32 10 18 10 C18 11.32 18 12.64 18 14 C18.66 14 19.32 14 20 14 C20 19.28 20 24.56 20 30 C19.34 30 18.68 30 18 30 C18 31.32 18 32.64 18 34 C17.34 34 16.68 34 16 34 C16 34.66 16 35.32 16 36 C15.34 36 14.68 36 14 36 C14 36.66 14 37.32 14 38 C13.34 38 12.68 38 12 38 C12 38.66 12 39.32 12 40 C10.68 40 9.36 40 8 40 C8 41.32 8 42.64 8 44 C8.66 44 9.32 44 10 44 C10 44.66 10 45.32 10 46 C10.66 46 11.32 46 12 46 C12 47.32 12 48.64 12 50 C12.66 50 13.32 50 14 50 C14 50.66 14 51.32 14 52 C14.66 52 15.32 52 16 52 C16 52.66 16 53.32 16 54 C16.66 54 17.32 54 18 54 C18 55.32 18 56.64 18 58 C18.66 58 19.32 58 20 58 C20 59.32 20 60.64 20 62 C20.66 62 21.32 62 22 62 C22 62.66 22 63.32 22 64 C22.66 64 23.32 64 24 64 C24 64.66 24 65.32 24 66 C25.32 66 26.64 66 28 66 C28 66.66 28 67.32 28 68 C27.34 68 26.68 68 26 68 C26 69.32 26 70.64 26 72 C20.06 72 14.12 72 8 72 C8 71.34 8 70.68 8 70 C7.34 70 6.68 70 6 70 C6 68.68 6 67.36 6 66 C5.34 66 4.68 66 4 66 C4 65.34 4 64.68 4 64 C3.34 64 2.68 64 2 64 C2 63.34 2 62.68 2 62 C1.34 62 0.68 62 0 62 C0 60.68 0 59.36 0 58 C-0.66 58 -1.32 58 -2 58 C-2 57.34 -2 56.68 -2 56 C-2.66 56 -3.32 56 -4 56 C-4 54.68 -4 53.36 -4 52 C-4.66 52 -5.32 52 -6 52 C-6 51.34 -6 50.68 -6 50 C-6.66 50 -7.32 50 -8 50 C-8 48.68 -8 47.36 -8 46 C-9.32 46 -10.64 46 -12 46 C-12 45.34 -12 44.68 -12 44 C-14.64 44 -17.28 44 -20 44 C-20 53.24 -20 62.48 -20 72 C-23.96 72 -27.92 72 -32 72 C-32 72.66 -32 73.32 -32 74 C-32.66 74 -33.32 74 -34 74 C-34 73.34 -34 72.68 -34 72 C-34.66 72 -35.32 72 -36 72 C-36 54.18 -36 36.36 -36 18 C-36.66 18 -37.32 18 -38 18 C-38 17.34 -38 16.68 -38 16 C-37.34 16 -36.68 16 -36 16 C-36 11.38 -36 6.76 -36 2 C-24.12 2 -12.24 2 0 2 C0 1.34 0 0.68 0 0 Z M-20 16 C-20 20.62 -20 25.24 -20 30 C-15.38 30 -10.76 30 -6 30 C-6 29.34 -6 28.68 -6 28 C-5.34 28 -4.68 28 -4 28 C-4 28.66 -4 29.32 -4 30 C-2.02 30 -0.04 30 2 30 C2 28.68 2 27.36 2 26 C2.66 26 3.32 26 4 26 C4 24.02 4 22.04 4 20 C3.34 20 2.68 20 2 20 C2 20.66 2 21.32 2 22 C1.34 22 0.68 22 0 22 C0 21.34 0 20.68 0 20 C-0.66 20 -1.32 20 -2 20 C-2 18.68 -2 17.36 -2 16 C-5.3 16 -8.6 16 -12 16 C-12 16.66 -12 17.32 -12 18 C-12.66 18 -13.32 18 -14 18 C-14 17.34 -14 16.68 -14 16 C-15.98 16 -17.96 16 -20 16 Z " fill="#010101" transform="translate(512,528)"/>
<path d="M0 0 C0.66 0 1.32 0 2 0 C2 0.66 2 1.32 2 2 C3.98 2 5.96 2 8 2 C8 1.34 8 0.68 8 0 C13.28 0 18.56 0 24 0 C24 0.66 24 1.32 24 2 C25.98 2 27.96 2 30 2 C30 2.66 30 3.32 30 4 C30.66 4 31.32 4 32 4 C32 4.66 32 5.32 32 6 C32.66 6 33.32 6 34 6 C34 6.66 34 7.32 34 8 C34.66 8 35.32 8 36 8 C36 8.66 36 9.32 36 10 C36.66 10 37.32 10 38 10 C38 10.66 38 11.32 38 12 C38.66 12 39.32 12 40 12 C40 13.98 40 15.96 40 18 C40.66 18 41.32 18 42 18 C42 19.32 42 20.64 42 22 C41.34 22 40.68 22 40 22 C40 22.66 40 23.32 40 24 C35.38 24 30.76 24 26 24 C26 23.34 26 22.68 26 22 C25.34 22 24.68 22 24 22 C24 20.68 24 19.36 24 18 C23.34 18 22.68 18 22 18 C22 17.34 22 16.68 22 16 C20.68 16 19.36 16 18 16 C18 15.34 18 14.68 18 14 C15.36 14 12.72 14 10 14 C10 14.66 10 15.32 10 16 C8.68 16 7.36 16 6 16 C6 16.66 6 17.32 6 18 C5.34 18 4.68 18 4 18 C4 18.66 4 19.32 4 20 C4.66 20 5.32 20 6 20 C6 20.66 6 21.32 6 22 C6.66 22 7.32 22 8 22 C8 22.66 8 23.32 8 24 C9.98 24 11.96 24 14 24 C14 24.66 14 25.32 14 26 C16.64 26 19.28 26 22 26 C22 26.66 22 27.32 22 28 C23.98 28 25.96 28 28 28 C28 28.66 28 29.32 28 30 C29.32 30 30.64 30 32 30 C32 30.66 32 31.32 32 32 C33.32 32 34.64 32 36 32 C36 32.66 36 33.32 36 34 C36.66 34 37.32 34 38 34 C38 34.66 38 35.32 38 36 C38.66 36 39.32 36 40 36 C40 37.32 40 38.64 40 40 C40.66 40 41.32 40 42 40 C42 41.98 42 43.96 42 46 C42.66 46 43.32 46 44 46 C44 47.98 44 49.96 44 52 C43.34 52 42.68 52 42 52 C42 53.98 42 55.96 42 58 C41.34 58 40.68 58 40 58 C40 59.32 40 60.64 40 62 C39.34 62 38.68 62 38 62 C38 62.66 38 63.32 38 64 C37.34 64 36.68 64 36 64 C36 64.66 36 65.32 36 66 C35.34 66 34.68 66 34 66 C34 66.66 34 67.32 34 68 C32.68 68 31.36 68 30 68 C30 68.66 30 69.32 30 70 C26.7 70 23.4 70 20 70 C20 70.66 20 71.32 20 72 C17.36 72 14.72 72 12 72 C12 71.34 12 70.68 12 70 C8.7 70 5.4 70 2 70 C2 69.34 2 68.68 2 68 C0.68 68 -0.64 68 -2 68 C-2 67.34 -2 66.68 -2 66 C-2.66 66 -3.32 66 -4 66 C-4 65.34 -4 64.68 -4 64 C-4.66 64 -5.32 64 -6 64 C-6 63.34 -6 62.68 -6 62 C-6.66 62 -7.32 62 -8 62 C-8 61.34 -8 60.68 -8 60 C-8.66 60 -9.32 60 -10 60 C-10 59.34 -10 58.68 -10 58 C-10.66 58 -11.32 58 -12 58 C-12 56.02 -12 54.04 -12 52 C-12.66 52 -13.32 52 -14 52 C-14 50.68 -14 49.36 -14 48 C-13.34 48 -12.68 48 -12 48 C-12 47.34 -12 46.68 -12 46 C-11.34 46 -10.68 46 -10 46 C-10 45.34 -10 44.68 -10 44 C-8.68 44 -7.36 44 -6 44 C-6 43.34 -6 42.68 -6 42 C-5.34 42 -4.68 42 -4 42 C-4 42.66 -4 43.32 -4 44 C-2.02 44 -0.04 44 2 44 C2 45.32 2 46.64 2 48 C2.66 48 3.32 48 4 48 C4 49.32 4 50.64 4 52 C5.32 52 6.64 52 8 52 C8 53.32 8 54.64 8 56 C10.64 56 13.28 56 16 56 C16 54.68 16 53.36 16 52 C16.66 52 17.32 52 18 52 C18 53.32 18 54.64 18 56 C19.98 56 21.96 56 24 56 C24 55.34 24 54.68 24 54 C24.66 54 25.32 54 26 54 C26 51.36 26 48.72 26 46 C24.02 46 22.04 46 20 46 C20 45.34 20 44.68 20 44 C19.34 44 18.68 44 18 44 C18 43.34 18 42.68 18 42 C15.36 42 12.72 42 10 42 C10 41.34 10 40.68 10 40 C8.02 40 6.04 40 4 40 C4 39.34 4 38.68 4 38 C2.68 38 1.36 38 0 38 C0 37.34 0 36.68 0 36 C-1.32 36 -2.64 36 -4 36 C-4 35.34 -4 34.68 -4 34 C-4.66 34 -5.32 34 -6 34 C-6 33.34 -6 32.68 -6 32 C-6.66 32 -7.32 32 -8 32 C-8 31.34 -8 30.68 -8 30 C-8.66 30 -9.32 30 -10 30 C-10 28.02 -10 26.04 -10 24 C-10.66 24 -11.32 24 -12 24 C-12 21.36 -12 18.72 -12 16 C-11.34 16 -10.68 16 -10 16 C-10 14.68 -10 13.36 -10 12 C-9.34 12 -8.68 12 -8 12 C-8 10.68 -8 9.36 -8 8 C-7.34 8 -6.68 8 -6 8 C-6 7.34 -6 6.68 -6 6 C-4.68 6 -3.36 6 -2 6 C-2 5.34 -2 4.68 -2 4 C-1.34 4 -0.68 4 0 4 C0 2.68 0 1.36 0 0 Z " fill="#F3D24D" transform="translate(486,606)"/>
<path d="M0 0 C5.28 0 10.56 0 16 0 C16 0.66 16 1.32 16 2 C16.66 2 17.32 2 18 2 C18 2.66 18 3.32 18 4 C17.34 4 16.68 4 16 4 C16 9.28 16 14.56 16 20 C17.32 20 18.64 20 20 20 C20 19.34 20 18.68 20 18 C21.98 18 23.96 18 26 18 C26 17.34 26 16.68 26 16 C28.64 16 31.28 16 34 16 C34 16.66 34 17.32 34 18 C35.32 18 36.64 18 38 18 C38 18.66 38 19.32 38 20 C39.32 20 40.64 20 42 20 C42 20.66 42 21.32 42 22 C42.66 22 43.32 22 44 22 C44 23.32 44 24.64 44 26 C45.32 26 46.64 26 48 26 C48 26.66 48 27.32 48 28 C47.34 28 46.68 28 46 28 C46 40.54 46 53.08 46 66 C46.66 66 47.32 66 48 66 C48 66.66 48 67.32 48 68 C46.02 68 44.04 68 42 68 C42 68.66 42 69.32 42 70 C41.34 70 40.68 70 40 70 C40 69.34 40 68.68 40 68 C36.7 68 33.4 68 30 68 C30 55.46 30 42.92 30 30 C26.7 30 23.4 30 20 30 C20 30.66 20 31.32 20 32 C19.34 32 18.68 32 18 32 C18 33.98 18 35.96 18 38 C17.34 38 16.68 38 16 38 C16 47.9 16 57.8 16 68 C10.72 68 5.44 68 0 68 C0 50.84 0 33.68 0 16 C-1.32 16 -2.64 16 -4 16 C-4 15.34 -4 14.68 -4 14 C-2.68 14 -1.36 14 0 14 C0 9.38 0 4.76 0 0 Z " fill="#F0CF51" transform="translate(532,608)"/>
<path d="M0 0 C1.98 0 3.96 0 6 0 C6 13.86 6 27.72 6 42 C6.66 42 7.32 42 8 42 C8 42.66 8 43.32 8 44 C7.34 44 6.68 44 6 44 C6 45.98 6 47.96 6 50 C3.36 50 0.72 50 -2 50 C-2 49.34 -2 48.68 -2 48 C-2.66 48 -3.32 48 -4 48 C-4 47.34 -4 46.68 -4 46 C-5.32 46 -6.64 46 -8 46 C-8 45.34 -8 44.68 -8 44 C-9.32 44 -10.64 44 -12 44 C-12 43.34 -12 42.68 -12 42 C-13.32 42 -14.64 42 -16 42 C-16 41.34 -16 40.68 -16 40 C-17.32 40 -18.64 40 -20 40 C-20 39.34 -20 38.68 -20 38 C-21.32 38 -22.64 38 -24 38 C-24 37.34 -24 36.68 -24 36 C-25.32 36 -26.64 36 -28 36 C-28 35.34 -28 34.68 -28 34 C-29.32 34 -30.64 34 -32 34 C-32 33.34 -32 32.68 -32 32 C-32.66 32 -33.32 32 -34 32 C-34 31.34 -34 30.68 -34 30 C-34.66 30 -35.32 30 -36 30 C-36 29.34 -36 28.68 -36 28 C-36.66 28 -37.32 28 -38 28 C-38 26.02 -38 24.04 -38 22 C-37.34 22 -36.68 22 -36 22 C-36 21.34 -36 20.68 -36 20 C-35.34 20 -34.68 20 -34 20 C-34 19.34 -34 18.68 -34 18 C-33.34 18 -32.68 18 -32 18 C-32 17.34 -32 16.68 -32 16 C-30.68 16 -29.36 16 -28 16 C-28 15.34 -28 14.68 -28 14 C-26.68 14 -25.36 14 -24 14 C-24 13.34 -24 12.68 -24 12 C-22.68 12 -21.36 12 -20 12 C-20 11.34 -20 10.68 -20 10 C-18.68 10 -17.36 10 -16 10 C-16 9.34 -16 8.68 -16 8 C-15.34 8 -14.68 8 -14 8 C-14 7.34 -14 6.68 -14 6 C-12.02 6 -10.04 6 -8 6 C-8 5.34 -8 4.68 -8 4 C-6.68 4 -5.36 4 -4 4 C-4 3.34 -4 2.68 -4 2 C-2.68 2 -1.36 2 0 2 C0 1.34 0 0.68 0 0 Z " fill="#000000" transform="translate(450,638)"/>
<path d="M0 0 C0.66 0 1.32 0 2 0 C2 0.66 2 1.32 2 2 C5.96 2 9.92 2 14 2 C14 2.66 14 3.32 14 4 C14.66 4 15.32 4 16 4 C16 4.66 16 5.32 16 6 C16.66 6 17.32 6 18 6 C18 6.66 18 7.32 18 8 C18.66 8 19.32 8 20 8 C19.34 9.32 18.68 10.64 18 12 C16.79557292 10.47005208 15.59114583 8.94010417 14.38671875 7.41015625 C12.94316909 5.72844923 12.94316909 5.72844923 10 5 C7.99124558 5.27571139 5.98821313 5.60235737 4 6 C4.495 9.465 4.495 9.465 5 13 C5.66 13 6.32 13 7 13 C8.2890625 14.75 8.2890625 14.75 9.625 17 C10.07101562 17.7425 10.51703125 18.485 10.9765625 19.25 C11.31429687 19.8275 11.65203125 20.405 12 21 C10.68 20.67 9.36 20.34 8 20 C8 19.34 8 18.68 8 18 C7.34 18 6.68 18 6 18 C6 17.34 6 16.68 6 16 C5.34 16 4.68 16 4 16 C4 14.68 4 13.36 4 12 C3.34 12 2.68 12 2 12 C2 11.34 2 10.68 2 10 C1.34 10 0.68 10 0 10 C0 9.34 0 8.68 0 8 C-1.32 8 -2.64 8 -4 8 C-4 20.54 -4 33.08 -4 46 C-3.34 46 -2.68 46 -2 46 C-2 45.34 -2 44.68 -2 44 C-1.34 44 -0.68 44 0 44 C0 43.34 0 42.68 0 42 C0.66 42 1.32 42 2 42 C2 41.34 2 40.68 2 40 C2.66 40 3.32 40 4 40 C4 38.68 4 37.36 4 36 C4.66 36 5.32 36 6 36 C6 35.34 6 34.68 6 34 C6.99 34.495 6.99 34.495 8 35 C7.67386719 35.58007812 7.34773437 36.16015625 7.01171875 36.7578125 C4.56875229 41.12488529 2.19241179 45.49978632 0 50 C1.98 50 3.96 50 6 50 C6 50.66 6 51.32 6 52 C-2.58 52 -11.16 52 -20 52 C-20 40.12 -20 28.24 -20 16 C-22.64 16 -25.28 16 -28 16 C-28 15.34 -28 14.68 -28 14 C-27.236875 13.938125 -26.47375 13.87625 -25.6875 13.8125 C-22.14563333 12.7417031 -21.82254259 11.09039831 -20 8 C-18.68 8 -17.36 8 -16 8 C-16.33 20.87 -16.66 33.74 -17 47 C-14.36 47 -11.72 47 -9 47 C-8.01 25.715 -8.01 25.715 -7 4 C-5.35 4.66 -3.7 5.32 -2 6 C-2 4.68 -2 3.36 -2 2 C-1.34 2 -0.68 2 0 2 C0 1.34 0 0.68 0 0 Z M-20 12 C-20 12.66 -20 13.32 -20 14 C-19.34 14 -18.68 14 -18 14 C-18 13.34 -18 12.68 -18 12 C-18.66 12 -19.32 12 -20 12 Z " fill="#EDCE5A" transform="translate(710,624)"/>
<path d="M0 0 C0.721875 0.00257813 1.44375 0.00515625 2.1875 0.0078125 C2.909375 0.00523437 3.63125 0.00265625 4.375 0 C6.1875 0.1328125 6.1875 0.1328125 7.1875 1.1328125 C7.28870303 3.59796557 7.32718788 6.03440842 7.3203125 8.5 C7.32174759 9.62403732 7.32174759 9.62403732 7.32321167 10.77078247 C7.32389424 12.36639489 7.32203466 13.96201005 7.31787109 15.55761719 C7.31259833 17.96295718 7.31777412 20.36810395 7.32421875 22.7734375 C7.3274062 30.94542741 7.17214146 39.00671682 6.1875 47.1328125 C3.5475 47.1328125 0.9075 47.1328125 -1.8125 47.1328125 C-2.1425 45.4828125 -2.4725 43.8328125 -2.8125 42.1328125 C-4.7925 42.1328125 -6.7725 42.1328125 -8.8125 42.1328125 C-8.18059816 37.45673888 -8.18059816 37.45673888 -6.25 35.7578125 C-4.45077642 34.05546065 -4.45077642 34.05546065 -4.5625 30.6328125 C-4.66511432 27.16191413 -4.66511432 27.16191413 -5.8125 24.1328125 C-5.96127911 21.5349003 -6.04353235 18.98138101 -6.0625 16.3828125 C-6.083125 15.691875 -6.10375 15.0009375 -6.125 14.2890625 C-6.16340808 9.18078833 -5.12747692 5.69261553 -2.8125 1.1328125 C-1.8125 0.1328125 -1.8125 0.1328125 0 0 Z " fill="#F1D052" transform="translate(619.8125,626.8671875)"/>
<path d="M0 0 C1.98 0 3.96 0 6 0 C6 4.95 6 9.9 6 15 C5.34 15.33 4.68 15.66 4 16 C4 12.04 4 8.08 4 4 C-2.22407071 7.68997144 -2.22407071 7.68997144 -5.875 13.5625 C-7 16 -7 16 -9.625 17.3125 C-10.40875 17.539375 -11.1925 17.76625 -12 18 C-12 20.64 -12 23.28 -12 26 C-11.34 26 -10.68 26 -10 26 C-10 26.66 -10 27.32 -10 28 C-11.32 28 -12.64 28 -14 28 C-14 39.88 -14 51.76 -14 64 C-14.66 64 -15.32 64 -16 64 C-16 64.66 -16 65.32 -16 66 C-20.62 66 -25.24 66 -30 66 C-30 64.68 -30 63.36 -30 62 C-30.66 62 -31.32 62 -32 62 C-32 62.66 -32 63.32 -32 64 C-33.32 63.67 -34.64 63.34 -36 63 C-35.34 61.68 -34.68 60.36 -34 59 C-31.69 59 -29.38 59 -27 59 C-26.67 60.65 -26.34 62.3 -26 64 C-23.36 64 -20.72 64 -18 64 C-18 48.82 -18 33.64 -18 18 C-20.64 18 -23.28 18 -26 18 C-26.99 20.31 -27.98 22.62 -29 25 C-29.33 25 -29.66 25 -30 25 C-30 22.69 -30 20.38 -30 18 C-30.66 18 -31.32 18 -32 18 C-32 17.34 -32 16.68 -32 16 C-28.7 16 -25.4 16 -22 16 C-22 15.34 -22 14.68 -22 14 C-20.68 14 -19.36 14 -18 14 C-18 14.66 -18 15.32 -18 16 C-15.36 16 -12.72 16 -10 16 C-10 14.68 -10 13.36 -10 12 C-10.66 12 -11.32 12 -12 12 C-12 11.34 -12 10.68 -12 10 C-11.34 10 -10.68 10 -10 10 C-10 9.34 -10 8.68 -10 8 C-9.34 8 -8.68 8 -8 8 C-8 7.34 -8 6.68 -8 6 C-7.34 6 -6.68 6 -6 6 C-6 5.34 -6 4.68 -6 4 C-4.68 4 -3.36 4 -2 4 C-2 3.34 -2 2.68 -2 2 C-1.34 2 -0.68 2 0 2 C0 1.34 0 0.68 0 0 Z " fill="#DFC050" transform="translate(644,610)"/>
<path d="M0 0 C5.28 0 10.56 0 16 0 C16 0.66 16 1.32 16 2 C16.66 2 17.32 2 18 2 C18 2.66 18 3.32 18 4 C17.34 4 16.68 4 16 4 C16 9.28 16 14.56 16 20 C17.32 20 18.64 20 20 20 C20 19.34 20 18.68 20 18 C21.98 18 23.96 18 26 18 C26 17.34 26 16.68 26 16 C28.64 16 31.28 16 34 16 C34 16.66 34 17.32 34 18 C35.32 18 36.64 18 38 18 C38 18.66 38 19.32 38 20 C39.32 20 40.64 20 42 20 C42 20.66 42 21.32 42 22 C39.625 22.125 39.625 22.125 37 22 C36.34 21.34 35.68 20.68 35 20 C32.4362107 19.64223834 32.4362107 19.64223834 29.5625 19.6875 C28.59441406 19.67074219 27.62632812 19.65398438 26.62890625 19.63671875 C23.59653761 20.05575335 22.97220347 20.78642237 21 23 C17.51967799 22.73897585 15.94903702 21.96602468 13 20 C12.7512207 18.12060547 12.7512207 18.12060547 12.92578125 15.8671875 C12.98056641 15.06152344 13.03535156 14.25585938 13.09179688 13.42578125 C13.16462891 12.58402344 13.23746094 11.74226562 13.3125 10.875 C13.4043457 9.60076172 13.4043457 9.60076172 13.49804688 8.30078125 C13.65151391 6.19946335 13.82397722 4.09954876 14 2 C10.7 2 7.4 2 4 2 C4.020625 2.969375 4.04125 3.93875 4.0625 4.9375 C4 8 4 8 3 9 C2.75649445 11.9220666 2.57270921 14.82241448 2.4375 17.75 C2.3957666 18.62035889 2.3540332 19.49071777 2.31103516 20.38745117 C1.77724712 32.16673694 2.0561309 43.80731914 2.73193359 55.57543945 C2.78043457 56.49156006 2.82893555 57.40768066 2.87890625 58.3515625 C2.9260376 59.17479004 2.97316895 59.99801758 3.02172852 60.84619141 C3 63 3 63 2 66 C7.445 65.505 7.445 65.505 13 65 C13.33 56.42 13.66 47.84 14 39 C14.99 38.505 14.99 38.505 16 38 C16 47.9 16 57.8 16 68 C10.72 68 5.44 68 0 68 C0 50.84 0 33.68 0 16 C-1.32 16 -2.64 16 -4 16 C-4 15.34 -4 14.68 -4 14 C-2.68 14 -1.36 14 0 14 C0 9.38 0 4.76 0 0 Z " fill="#D6BA4C" transform="translate(532,608)"/>
<path d="M0 0 C4.62 0 9.24 0 14 0 C13.67 0.99 13.34 1.98 13 3 C9.7 3.33 6.4 3.66 3 4 C2.814375 5.5675 2.62875 7.135 2.4375 8.75 C2.33308594 9.63171875 2.22867188 10.5134375 2.12109375 11.421875 C2.00476861 13.89847485 2.38692182 15.63011798 3 18 C2.67 18.66 2.34 19.32 2 20 C1.61371852 27.61201738 2.07641028 35.16515372 2.87890625 42.734375 C2.91886719 43.48203125 2.95882812 44.2296875 3 45 C2.505 45.495 2.505 45.495 2 46 C5.3 46.66 8.6 47.32 12 48 C11.95875 46.9275 11.9175 45.855 11.875 44.75 C11.875 39.12290772 12.58792016 33.4478389 14 28 C14.66 27.67 15.32 27.34 16 27 C16 30.63 16 34.26 16 38 C16.66 38 17.32 38 18 38 C18 38.66 18 39.32 18 40 C17.34 40 16.68 40 16 40 C16 42.64 16 45.28 16 48 C15.34 48 14.68 48 14 48 C14 48.66 14 49.32 14 50 C11.08308475 50.05401695 8.16717276 50.09368066 5.25 50.125 C4.425 50.14175781 3.6 50.15851562 2.75 50.17578125 C1.55117188 50.18544922 1.55117188 50.18544922 0.328125 50.1953125 C-0.4050293 50.20578613 -1.13818359 50.21625977 -1.89355469 50.22705078 C-4.29896076 49.96777544 -5.91251494 49.19225925 -8 48 C-6.35 48 -4.7 48 -3 48 C-3.33 45.03 -3.66 42.06 -4 39 C-6.31 39 -8.62 39 -11 39 C-11 30.09 -11 21.18 -11 12 C-10.67 12 -10.34 12 -10 12 C-10 19.92 -10 27.84 -10 36 C-9.34 36 -8.68 36 -8 36 C-8 36.66 -8 37.32 -8 38 C-6.68 38 -5.36 38 -4 38 C-4 37.34 -4 36.68 -4 36 C-3.34 36 -2.68 36 -2 36 C-2 36.66 -2 37.32 -2 38 C-1.34 38 -0.68 38 0 38 C0 28.76 0 19.52 0 10 C-0.66 10 -1.32 10 -2 10 C-2 9.34 -2 8.68 -2 8 C-1.34 8 -0.68 8 0 8 C0 5.36 0 2.72 0 0 Z " fill="#E7CA54" transform="translate(660,626)"/>
<path d="M0 0 C0.66 0 1.32 0 2 0 C2 0.66 2 1.32 2 2 C3.98 2 5.96 2 8 2 C8 1.34 8 0.68 8 0 C13.28 0 18.56 0 24 0 C24 0.66 24 1.32 24 2 C25.32 2 26.64 2 28 2 C28 2.66 28 3.32 28 4 C27.25838623 3.99476318 26.51677246 3.98952637 25.75268555 3.98413086 C22.39763229 3.96336386 19.04259256 3.9503407 15.6875 3.9375 C14.52025391 3.92912109 13.35300781 3.92074219 12.15039062 3.91210938 C11.03212891 3.90888672 9.91386719 3.90566406 8.76171875 3.90234375 C7.73006592 3.89710693 6.69841309 3.89187012 5.63549805 3.88647461 C2.89053726 3.88365 2.89053726 3.88365 0 5 C-0.33 5.99 -0.66 6.98 -1 8 C-1.99 8 -2.98 8 -4 8 C-4 8.99 -4 9.98 -4 11 C-4.99 11 -5.98 11 -7 11 C-8.66256623 16.7446394 -9.2906279 23.36007929 -6.625 28.8125 C-0.44495901 33.96253416 4.97811527 37.0318415 13 38 C24.99637462 42.12028719 24.99637462 42.12028719 29 47 C29.50299316 51.10777749 29.32749345 52.50875983 27 56 C26.01 56 25.02 56 24 56 C24 55.34 24 54.68 24 54 C24.66 54 25.32 54 26 54 C26 51.36 26 48.72 26 46 C24.02 46 22.04 46 20 46 C20 45.34 20 44.68 20 44 C19.34 44 18.68 44 18 44 C18 43.34 18 42.68 18 42 C15.36 42 12.72 42 10 42 C10 41.34 10 40.68 10 40 C8.02 40 6.04 40 4 40 C4 39.34 4 38.68 4 38 C2.68 38 1.36 38 0 38 C0 37.34 0 36.68 0 36 C-1.32 36 -2.64 36 -4 36 C-4 35.34 -4 34.68 -4 34 C-4.66 34 -5.32 34 -6 34 C-6 33.34 -6 32.68 -6 32 C-6.66 32 -7.32 32 -8 32 C-8 31.34 -8 30.68 -8 30 C-8.66 30 -9.32 30 -10 30 C-10 28.02 -10 26.04 -10 24 C-10.66 24 -11.32 24 -12 24 C-12 21.36 -12 18.72 -12 16 C-11.34 16 -10.68 16 -10 16 C-10 14.68 -10 13.36 -10 12 C-9.34 12 -8.68 12 -8 12 C-8 10.68 -8 9.36 -8 8 C-7.34 8 -6.68 8 -6 8 C-6 7.34 -6 6.68 -6 6 C-4.68 6 -3.36 6 -2 6 C-2 5.34 -2 4.68 -2 4 C-1.34 4 -0.68 4 0 4 C0 2.68 0 1.36 0 0 Z " fill="#DEC14C" transform="translate(486,606)"/>
<path d="M0 0 C1.32 0 2.64 0 4 0 C4 13.86 4 27.72 4 42 C7.96 42 11.92 42 16 42 C16.33 40.68 16.66 39.36 17 38 C17.33 37.34 17.66 36.68 18 36 C18.66 36 19.32 36 20 36 C20 35.34 20 34.68 20 34 C20.66 34 21.32 34 22 34 C22 33.34 22 32.68 22 32 C22.66 32 23.32 32 24 32 C24 30.68 24 29.36 24 28 C24.66 28 25.32 28 26 28 C26 27.34 26 26.68 26 26 C26.66 26.33 27.32 26.66 28 27 C27.67386719 27.58007812 27.34773437 28.16015625 27.01171875 28.7578125 C24.56875229 33.12488529 22.19241179 37.49978632 20 42 C21.98 42 23.96 42 26 42 C26 42.66 26 43.32 26 44 C17.42 44 8.84 44 0 44 C0 32.12 0 20.24 0 8 C-2.64 8 -5.28 8 -8 8 C-8 7.34 -8 6.68 -8 6 C-6.8553125 5.9071875 -6.8553125 5.9071875 -5.6875 5.8125 C-2.14563333 4.7417031 -1.82254259 3.09039831 0 0 Z M0 4 C0 4.66 0 5.32 0 6 C0.66 6 1.32 6 2 6 C2 5.34 2 4.68 2 4 C1.34 4 0.68 4 0 4 Z " fill="#DCBE4B" transform="translate(690,632)"/>
<path d="M0 0 C0.66 0 1.32 0 2 0 C2 1.32 2 2.64 2 4 C3.98 4 5.96 4 8 4 C8 8.62 8 13.24 8 18 C3.38 18 -1.24 18 -6 18 C-6 18.66 -6 19.32 -6 20 C-6.66 20 -7.32 20 -8 20 C-8 14.72 -8 9.44 -8 4 C-6.68 4 -5.36 4 -4 4 C-4 3.34 -4 2.68 -4 2 C-2.68 2 -1.36 2 0 2 C0 1.34 0 0.68 0 0 Z " fill="#F1CD53" transform="translate(698,604)"/>
<path d="M0 0 C0.66 0 1.32 0 2 0 C2 0.66 2 1.32 2 2 C3.98 2 5.96 2 8 2 C8 3.32 8 4.64 8 6 C8.66 6 9.32 6 10 6 C10 7.32 10 8.64 10 10 C11.32 10 12.64 10 14 10 C14 11.32 14 12.64 14 14 C16.64 14 19.28 14 22 14 C22 12.68 22 11.36 22 10 C22.66 10 23.32 10 24 10 C24 11.32 24 12.64 24 14 C25.98 14 27.96 14 30 14 C29.67 14.66 29.34 15.32 29 16 C25.85069107 17.04976964 23.61185544 17.10131595 20.3125 17.0625 C19.31863281 17.05347656 18.32476562 17.04445313 17.30078125 17.03515625 C16.16189453 17.01775391 16.16189453 17.01775391 15 17 C15 16.34 15 15.68 15 15 C14.01 15 13.02 15 12 15 C12 14.34 12 13.68 12 13 C11.34 13 10.68 13 10 13 C10 12.34 10 11.68 10 11 C9.34 11 8.68 11 8 11 C7.67 10.01 7.34 9.02 7 8 C3.058684 5.74781943 0.34378986 5.98981631 -4 7 C-3.31419991 12.65785072 -0.5106262 16.96846821 2.8125 21.4375 C5.89294425 23.63781732 8.31397925 23.28354006 12 23 C12 24.32 12 25.64 12 27 C12.99 27.33 13.98 27.66 15 28 C12.69 28 10.38 28 8 28 C8 27.34 8 26.68 8 26 C6.68 26 5.36 26 4 26 C4 25.34 4 24.68 4 24 C3.34 24 2.68 24 2 24 C2 23.34 2 22.68 2 22 C1.34 22 0.68 22 0 22 C0 21.34 0 20.68 0 20 C-0.66 20 -1.32 20 -2 20 C-2 19.34 -2 18.68 -2 18 C-2.66 18 -3.32 18 -4 18 C-4 17.34 -4 16.68 -4 16 C-4.66 16 -5.32 16 -6 16 C-6 14.02 -6 12.04 -6 10 C-6.66 10 -7.32 10 -8 10 C-8 8.68 -8 7.36 -8 6 C-7.34 6 -6.68 6 -6 6 C-6 5.34 -6 4.68 -6 4 C-5.34 4 -4.68 4 -4 4 C-4 3.34 -4 2.68 -4 2 C-2.68 2 -1.36 2 0 2 C0 1.34 0 0.68 0 0 Z " fill="#E1C941" transform="translate(480,648)"/>
<path d="M0 0 C1.98 0 3.96 0 6 0 C6 0.66 6 1.32 6 2 C8.64 2 11.28 2 14 2 C14 2.66 14 3.32 14 4 C15.98 4 17.96 4 20 4 C20 4.66 20 5.32 20 6 C21.32 6 22.64 6 24 6 C24 6.66 24 7.32 24 8 C25.32 8 26.64 8 28 8 C28 8.66 28 9.32 28 10 C28.66 10 29.32 10 30 10 C30 10.66 30 11.32 30 12 C30.66 12 31.32 12 32 12 C32 13.32 32 14.64 32 16 C32.66 16 33.32 16 34 16 C34 17.98 34 19.96 34 22 C34.66 22 35.32 22 36 22 C36 23.98 36 25.96 36 28 C35.34 28 34.68 28 34 28 C34 29.98 34 31.96 34 34 C33.34 34 32.68 34 32 34 C32 35.32 32 36.64 32 38 C31.34 38 30.68 38 30 38 C30 38.66 30 39.32 30 40 C29.34 40 28.68 40 28 40 C28 40.66 28 41.32 28 42 C27.34 42 26.68 42 26 42 C26.62258316 38.66524422 27.15258297 37.82880935 29.5625 35.125 C33.56925811 29.88627891 32.39001672 23.24893456 32 17 C31.34 17 30.68 17 30 17 C29.67 16.01 29.34 15.02 29 14 C28.01 13.67 27.02 13.34 26 13 C26 12.34 26 11.68 26 11 C25.34 11 24.68 11 24 11 C24 10.34 24 9.68 24 9 C23.4225 8.855625 22.845 8.71125 22.25 8.5625 C20.16666667 8.04166667 18.08333333 7.52083333 16 7 C16 6.34 16 5.68 16 5 C15.34 5.061875 14.68 5.12375 14 5.1875 C8.77290331 4.86080646 4.32614261 2.88409507 0 0 Z " fill="#DCBF4D" transform="translate(494,630)"/>
<path d="M0 0 C3.41158256 1.13719419 4.11854601 2.04342944 6 5 C6 5.66 6 6.32 6 7 C7.98 6.67 9.96 6.34 12 6 C12 4.35 12 2.7 12 1 C12.99 1 13.98 1 15 1 C15 2.65 15 4.3 15 6 C16.65 6 18.3 6 20 6 C20 6.66 20 7.32 20 8 C20.66 8 21.32 8 22 8 C22 8.66 22 9.32 22 10 C21.34 10 20.68 10 20 10 C20 10.66 20 11.32 20 12 C14.72 12 9.44 12 4 12 C4 11.34 4 10.68 4 10 C3.34 10 2.68 10 2 10 C2 8.68 2 7.36 2 6 C1.34 6 0.68 6 0 6 C0 4.02 0 2.04 0 0 Z " fill="#EACF5E" transform="translate(736,664)"/>
<path d="M0 0 C0.33 0 0.66 0 1 0 C1 9.9 1 19.8 1 30 C-4.28 30 -9.56 30 -15 30 C-15.14285714 12 -15.14285714 12 -14 3 C-13.67 3 -13.34 3 -13 3 C-12.80323855 6.60372397 -12.61918361 10.2079869 -12.4375 13.8125 C-12.38142578 14.83666016 -12.32535156 15.86082031 -12.26757812 16.91601562 C-12.21923828 17.89892578 -12.17089844 18.88183594 -12.12109375 19.89453125 C-12.0739624 20.80050049 -12.02683105 21.70646973 -11.97827148 22.63989258 C-12 25 -12 25 -13 28 C-9.37 27.67 -5.74 27.34 -2 27 C-1.97494385 26.21761963 -1.9498877 25.43523926 -1.92407227 24.62915039 C-1.80850212 21.10675051 -1.68560051 17.5846444 -1.5625 14.0625 C-1.50352539 12.21495117 -1.50352539 12.21495117 -1.44335938 10.33007812 C-1.40146484 9.16025391 -1.35957031 7.99042969 -1.31640625 6.78515625 C-1.27974854 5.70113525 -1.24309082 4.61711426 -1.20532227 3.50024414 C-1 1 -1 1 0 0 Z " fill="#DFC158" transform="translate(547,646)"/>
<path d="M0 0 C0.66 0 1.32 0 2 0 C2 0.66 2 1.32 2 2 C3.98 2 5.96 2 8 2 C8 1.34 8 0.68 8 0 C13.28 0 18.56 0 24 0 C24 0.66 24 1.32 24 2 C25.32 2 26.64 2 28 2 C28 2.66 28 3.32 28 4 C27.25838623 3.99476318 26.51677246 3.98952637 25.75268555 3.98413086 C22.39763229 3.96336386 19.04259256 3.9503407 15.6875 3.9375 C14.52025391 3.92912109 13.35300781 3.92074219 12.15039062 3.91210938 C11.03212891 3.90888672 9.91386719 3.90566406 8.76171875 3.90234375 C7.73006592 3.89710693 6.69841309 3.89187012 5.63549805 3.88647461 C2.89053726 3.88365 2.89053726 3.88365 0 5 C-0.33 5.99 -0.66 6.98 -1 8 C-1.99 8 -2.98 8 -4 8 C-4 8.99 -4 9.98 -4 11 C-4.99 11 -5.98 11 -7 11 C-7.13277344 11.77085937 -7.26554687 12.54171875 -7.40234375 13.3359375 C-7.57894531 14.33882812 -7.75554687 15.34171875 -7.9375 16.375 C-8.11152344 17.37273438 -8.28554688 18.37046875 -8.46484375 19.3984375 C-9 22 -9 22 -10 24 C-10.66 24 -11.32 24 -12 24 C-12 21.36 -12 18.72 -12 16 C-11.34 16 -10.68 16 -10 16 C-10 14.68 -10 13.36 -10 12 C-9.34 12 -8.68 12 -8 12 C-8 10.68 -8 9.36 -8 8 C-7.34 8 -6.68 8 -6 8 C-6 7.34 -6 6.68 -6 6 C-4.68 6 -3.36 6 -2 6 C-2 5.34 -2 4.68 -2 4 C-1.34 4 -0.68 4 0 4 C0 2.68 0 1.36 0 0 Z " fill="#CFB046" transform="translate(486,606)"/>
<path d="M0 0 C0.66 0 1.32 0 2 0 C2 0.66 2 1.32 2 2 C5.96 2 9.92 2 14 2 C14 2.66 14 3.32 14 4 C14.66 4 15.32 4 16 4 C16 4.66 16 5.32 16 6 C16.66 6 17.32 6 18 6 C18 6.66 18 7.32 18 8 C18.66 8 19.32 8 20 8 C19.34 9.32 18.68 10.64 18 12 C16.79557292 10.47005208 15.59114583 8.94010417 14.38671875 7.41015625 C12.94316909 5.72844923 12.94316909 5.72844923 10 5 C7.99124558 5.27571139 5.98821313 5.60235737 4 6 C4.33 8.31 4.66 10.62 5 13 C5.66 13 6.32 13 7 13 C8.2890625 14.75 8.2890625 14.75 9.625 17 C10.07101562 17.7425 10.51703125 18.485 10.9765625 19.25 C11.48316406 20.11625 11.48316406 20.11625 12 21 C10.68 20.67 9.36 20.34 8 20 C8 19.34 8 18.68 8 18 C7.34 18 6.68 18 6 18 C6 17.34 6 16.68 6 16 C5.34 16 4.68 16 4 16 C4 14.68 4 13.36 4 12 C3.34 12 2.68 12 2 12 C2 11.34 2 10.68 2 10 C1.34 10 0.68 10 0 10 C0 9.34 0 8.68 0 8 C-0.66 8 -1.32 8 -2 8 C-2 6.02 -2 4.04 -2 2 C-1.34 2 -0.68 2 0 2 C0 1.34 0 0.68 0 0 Z " fill="#E3C555" transform="translate(710,624)"/>
<path d="M0 0 C5.28 0 10.56 0 16 0 C16 2.64 16 5.28 16 8 C14 5 14 5 14 2 C8.555 2.495 8.555 2.495 3 3 C2.67 13.89 2.34 24.78 2 36 C1.34 36 0.68 36 0 36 C0 26.1 0 16.2 0 6 C-0.66 6 -1.32 6 -2 6 C-2 5.34 -2 4.68 -2 4 C-1.34 4 -0.68 4 0 4 C0 2.68 0 1.36 0 0 Z " fill="#D1B453" transform="translate(582,626)"/>
<path d="M0 0 C0.99 0 1.98 0 3 0 C2.690625 0.825 2.38125 1.65 2.0625 2.5 C0.88122417 6.39126155 0.41775832 9.96166953 0 14 C0.66 14 1.32 14 2 14 C2.33 15.32 2.66 16.64 3 18 C3.66 18 4.32 18 5 18 C5.66 18.99 6.32 19.98 7 21 C9.05096895 21.97291483 9.05096895 21.97291483 11.47265625 22.6484375 C12.37306641 22.93203125 13.27347656 23.215625 14.20117188 23.5078125 C15.6175293 23.93707031 15.6175293 23.93707031 17.0625 24.375 C24.23312073 26.55188556 30.58733915 29.08856347 37 33 C37 33.99 37 34.98 37 36 C36.34 36 35.68 36 35 36 C34.57976563 35.55785156 34.15953125 35.11570312 33.7265625 34.66015625 C29.12510674 30.23567956 21.499457 28.13185059 15.3125 27.0625 C8.93305596 25.83300715 4.27662382 21.94345936 -0.5625 17.8125 C-2.81736131 13.40081484 -2.62271476 8.85862334 -2 4 C-0.9765625 1.66015625 -0.9765625 1.66015625 0 0 Z " fill="#F0D35B" transform="translate(479,617)"/>
<path d="M0 0 C1.98 0.495 1.98 0.495 4 1 C4 1.66 4 2.32 4 3 C3.34 3 2.68 3 2 3 C2 8.28 2 13.56 2 19 C3.32 19 4.64 19 6 19 C6 18.34 6 17.68 6 17 C7.98 17 9.96 17 12 17 C12 16.34 12 15.68 12 15 C14.64 15 17.28 15 20 15 C20 15.66 20 16.32 20 17 C21.32 17 22.64 17 24 17 C24 17.66 24 18.32 24 19 C25.32 19 26.64 19 28 19 C28 19.66 28 20.32 28 21 C25.625 21.125 25.625 21.125 23 21 C22.34 20.34 21.68 19.68 21 19 C18.4362107 18.64223834 18.4362107 18.64223834 15.5625 18.6875 C14.59441406 18.67074219 13.62632812 18.65398438 12.62890625 18.63671875 C9.59653761 19.05575335 8.97220347 19.78642237 7 22 C3.51967799 21.73897585 1.94903702 20.96602468 -1 19 C-1.2487793 17.02880859 -1.2487793 17.02880859 -1.07421875 14.6484375 C-1.01943359 13.79765625 -0.96464844 12.946875 -0.90820312 12.0703125 C-0.83537109 11.18085937 -0.76253906 10.29140625 -0.6875 9.375 C-0.62626953 8.4778125 -0.56503906 7.580625 -0.50195312 6.65625 C-0.34843467 4.43613694 -0.18056839 2.21805021 0 0 Z " fill="#E1C74E" transform="translate(546,609)"/>
<path d="M0 0 C1.32 0 2.64 0 4 0 C6.57996518 5.87094438 6.22552426 11.59609985 6.125 17.875 C6.11597656 18.94492187 6.10695313 20.01484375 6.09765625 21.1171875 C6.07419342 23.74502439 6.04136459 26.37239406 6 29 C4.02 29.99 4.02 29.99 2 31 C1.9753015 27.04900072 1.95714077 23.09803126 1.94506836 19.14697266 C1.93755964 17.14093449 1.9248553 15.13491798 1.91210938 13.12890625 C1.90888672 11.87207031 1.90566406 10.61523438 1.90234375 9.3203125 C1.89448853 7.57645264 1.89448853 7.57645264 1.88647461 5.79736328 C2 3 2 3 3 1 C2.01 0.67 1.02 0.34 0 0 Z " fill="#E9CB5A" transform="translate(592,628)"/>
<path d="M0 0 C0.66 0.33 1.32 0.66 2 1 C1.67386719 1.58007812 1.34773437 2.16015625 1.01171875 2.7578125 C-1.43124771 7.12488529 -3.80758821 11.49978632 -6 16 C-4.02 16 -2.04 16 0 16 C0 16.66 0 17.32 0 18 C-8.58 18 -17.16 18 -26 18 C-25.67 16.35 -25.34 14.7 -25 13 C-24.01 13 -23.02 13 -22 13 C-22 13.99 -22 14.98 -22 16 C-18.04 16 -14.08 16 -10 16 C-9.67 14.68 -9.34 13.36 -9 12 C-8.67 11.34 -8.34 10.68 -8 10 C-7.34 10 -6.68 10 -6 10 C-6 9.34 -6 8.68 -6 8 C-5.34 8 -4.68 8 -4 8 C-4 7.34 -4 6.68 -4 6 C-3.34 6 -2.68 6 -2 6 C-2 4.68 -2 3.36 -2 2 C-1.34 2 -0.68 2 0 2 C0 1.34 0 0.68 0 0 Z " fill="#D7B75A" transform="translate(716,658)"/>
<path d="M0 0 C2.64 0 5.28 0 8 0 C8 0.66 8 1.32 8 2 C10.64 2 13.28 2 16 2 C16 1.34 16 0.68 16 0 C16.66 0 17.32 0 18 0 C18 0.66 18 1.32 18 2 C20.64 2 23.28 2 26 2 C25.67 3.98 25.34 5.96 25 8 C24.67 6.68 24.34 5.36 24 4 C22.72253906 4.17402344 21.44507813 4.34804688 20.12890625 4.52734375 C15.00605993 5.0965489 10.06921196 4.9088607 4.9375 4.5625 C3.6390918 4.48418945 3.6390918 4.48418945 2.31445312 4.40429688 C0.20920968 4.2763539 -1.89546828 4.13916029 -4 4 C-4 3.34 -4 2.68 -4 2 C-2.68 2 -1.36 2 0 2 C0 1.34 0 0.68 0 0 Z " fill="#E6C94D" transform="translate(680,624)"/>
<path d="M0 0 C0.66 0 1.32 0 2 0 C2 0.66 2 1.32 2 2 C2.66 2 3.32 2 4 2 C4 2.66 4 3.32 4 4 C4.66 4 5.32 4 6 4 C6 4.66 6 5.32 6 6 C6.66 6 7.32 6 8 6 C8 6.66 8 7.32 8 8 C8.66 8 9.32 8 10 8 C10 9.98 10 11.96 10 14 C10.66 14 11.32 14 12 14 C12 15.32 12 16.64 12 18 C11.34 18 10.68 18 10 18 C10 18.66 10 19.32 10 20 C5.38 20 0.76 20 -4 20 C-4 19.34 -4 18.68 -4 18 C-4.66 18 -5.32 18 -6 18 C-5.67 16.68 -5.34 15.36 -5 14 C-5 14.99 -5 15.98 -5 17 C-0.71 17 3.58 17 8 17 C7.08108247 11.16422568 7.08108247 11.16422568 4 7 C4 6.34 4 5.68 4 5 C2.68 4.34 1.36 3.68 0 3 C0 2.01 0 1.02 0 0 Z " fill="#D7BA4C" transform="translate(516,610)"/>
<path d="M0 0 C0.99 0.495 0.99 0.495 2 1 C3.15613581 6.8857823 2.88860329 12.0942058 2 18 C2.66 18 3.32 18 4 18 C3.855625 18.928125 3.71125 19.85625 3.5625 20.8125 C2.83635037 25.85405316 2.4312193 30.92629204 2 36 C1.34 36 0.68 36 0 36 C0 24.12 0 12.24 0 0 Z " fill="#D8BB53" transform="translate(562,638)"/>
<path d="M0 0 C0.99 0.33 1.98 0.66 3 1 C2.34 1 1.68 1 1 1 C2.56094871 8.25469498 4.86559351 14.42730596 11 19 C14.79767901 19.67174175 14.79767901 19.67174175 18 19 C18 20.32 18 21.64 18 23 C18.99 23.33 19.98 23.66 21 24 C18.69 24 16.38 24 14 24 C14 23.34 14 22.68 14 22 C12.68 22 11.36 22 10 22 C10 21.34 10 20.68 10 20 C9.34 20 8.68 20 8 20 C8 19.34 8 18.68 8 18 C7.34 18 6.68 18 6 18 C6 17.34 6 16.68 6 16 C5.34 16 4.68 16 4 16 C4 15.34 4 14.68 4 14 C3.34 14 2.68 14 2 14 C2 13.34 2 12.68 2 12 C1.34 12 0.68 12 0 12 C0 10.02 0 8.04 0 6 C-0.66 6 -1.32 6 -2 6 C-2 4.68 -2 3.36 -2 2 C-1.34 2 -0.68 2 0 2 C0 1.34 0 0.68 0 0 Z " fill="#D7BB48" transform="translate(474,652)"/>
<path d="M0 0 C1.32 0 2.64 0 4 0 C4 0.66 4 1.32 4 2 C3.01 2.33 2.02 2.66 1 3 C0.67 5.97 0.34 8.94 0 12 C1.6256807 11.69106068 3.25052748 11.3777305 4.875 11.0625 C5.77992188 10.88847656 6.68484375 10.71445312 7.6171875 10.53515625 C9.99956317 10.10036299 9.99956317 10.10036299 12 9 C12 10.32 12 11.64 12 13 C7.38 13 2.76 13 -2 13 C-2 13.66 -2 14.32 -2 15 C-2.66 15 -3.32 15 -4 15 C-4 10.38 -4 5.76 -4 1 C-3.34 1 -2.68 1 -2 1 C-2 1.99 -2 2.98 -2 4 C-1.34 2.68 -0.68 1.36 0 0 Z " fill="#E4C656" transform="translate(694,609)"/>
<path d="M0 0 C0.66 0 1.32 0 2 0 C2 10.56 2 21.12 2 32 C0.02 32.495 0.02 32.495 -2 33 C-1.84152588 32.47889648 -1.68305176 31.95779297 -1.51977539 31.42089844 C-0.86021098 28.34892068 -0.78002727 25.40660253 -0.68359375 22.265625 C-0.62075195 20.32236328 -0.62075195 20.32236328 -0.55664062 18.33984375 C-0.51683329 16.97656524 -0.47712094 15.61328394 -0.4375 14.25 C-0.39427726 12.87108125 -0.35066179 11.49217474 -0.30664062 10.11328125 C-0.20056042 6.7422881 -0.0985015 3.37122174 0 0 Z " fill="#EDCF62" transform="translate(544,641)"/>
<path d="M0 0 C0.33 0 0.66 0 1 0 C1 7.92 1 15.84 1 24 C1.66 24 2.32 24 3 24 C3 24.66 3 25.32 3 26 C4.32 26 5.64 26 7 26 C7 25.34 7 24.68 7 24 C7.66 24 8.32 24 9 24 C9 24.66 9 25.32 9 26 C9.66 26 10.32 26 11 26 C11.33 25.34 11.66 24.68 12 24 C12.125 31.75 12.125 31.75 11 34 C10.34 34 9.68 34 9 34 C8.67 31.69 8.34 29.38 8 27 C5.36 27 2.72 27 0 27 C0 18.09 0 9.18 0 0 Z " fill="#E9C347" transform="translate(649,638)"/>
<path d="M0 0 C0.33 0 0.66 0 1 0 C1.25515919 7.52719602 0.28297723 14.58851545 -1 22 C-3.31 22 -5.62 22 -8 22 C-8 21.01 -8 20.02 -8 19 C-6.35 19 -4.7 19 -3 19 C-3.02320313 18.03578125 -3.04640625 17.0715625 -3.0703125 16.078125 C-3.09738281 14.18320312 -3.09738281 14.18320312 -3.125 12.25 C-3.14820313 10.99703125 -3.17140625 9.7440625 -3.1953125 8.453125 C-2.99471376 4.90653929 -2.53923857 2.53923857 0 0 Z " fill="#EDCF5F" transform="translate(673,652)"/>
<path d="M0 0 C2.68334498 5.36668995 3.21272453 8.92024443 3.25 14.875 C3.270625 15.69097656 3.29125 16.50695312 3.3125 17.34765625 C3.31765625 18.13785156 3.3228125 18.92804687 3.328125 19.7421875 C3.3374707 20.4626123 3.34681641 21.18303711 3.35644531 21.92529297 C3 24 3 24 0 28 C0 18.76 0 9.52 0 0 Z " fill="#E0C55E" transform="translate(634,638)"/>
<path d="M0 0 C2.50031654 3.75047482 2.53603554 5.55856266 2 10 C-0.0924055 13.10485978 -1.62775336 14.69021188 -5.3359375 15.52734375 C-7.56515115 15.78401977 -9.75739476 15.94625565 -12 16 C-12 15.34 -12 14.68 -12 14 C-12.66 13.67 -13.32 13.34 -14 13 C-10.7 13 -7.4 13 -4 13 C-4 12.34 -4 11.68 -4 11 C-3.34 11 -2.68 11 -2 11 C-2 8.36 -2 5.72 -2 3 C-1.34 3 -0.68 3 0 3 C0 2.01 0 1.02 0 0 Z " fill="#DFC24A" transform="translate(614,651)"/>
<path d="M0 0 C1.98 0.495 1.98 0.495 4 1 C3.67 1.33 3.34 1.66 3 2 C2.51206539 5.51312921 2.84356187 6.77055742 4.875 9.75 C6.7945358 12.04026496 6.7945358 12.04026496 9 13 C9 13.66 9 14.32 9 15 C9.804375 15.12375 10.60875 15.2475 11.4375 15.375 C12.283125 15.58125 13.12875 15.7875 14 16 C14.33 16.66 14.66 17.32 15 18 C11.3950592 18.34504433 9.63358698 18.50140763 6.734375 16.20703125 C6.07953125 15.41683594 5.4246875 14.62664063 4.75 13.8125 C4.08484375 13.03519531 3.4196875 12.25789062 2.734375 11.45703125 C0.50780745 8.30272723 -1.26017954 5.60444049 -0.625 1.6875 C-0.41875 1.130625 -0.2125 0.57375 0 0 Z " fill="#EDD35D" transform="translate(476,654)"/>
<path d="M0 0 C4.62 0 9.24 0 14 0 C13.67 0.99 13.34 1.98 13 3 C9.7 3.33 6.4 3.66 3 4 C2.67 5.98 2.34 7.96 2 10 C0.68 10 -0.64 10 -2 10 C-2 9.34 -2 8.68 -2 8 C-1.34 8 -0.68 8 0 8 C0 5.36 0 2.72 0 0 Z " fill="#E7BD5C" transform="translate(660,626)"/>
<path d="M0 0 C2.64 0 5.28 0 8 0 C6 3 6 3 3.25 3.6875 C-0.90185337 5.36421001 -2.22768304 7.63900239 -4.60546875 11.3203125 C-5.06566406 11.87460937 -5.52585937 12.42890625 -6 13 C-6.99 13 -7.98 13 -9 13 C-9.33 12.01 -9.66 11.02 -10 10 C-9.34 10 -8.68 10 -8 10 C-8 9.34 -8 8.68 -8 8 C-7.34 8 -6.68 8 -6 8 C-6 7.34 -6 6.68 -6 6 C-5.34 6 -4.68 6 -4 6 C-4 5.34 -4 4.68 -4 4 C-3.34 4 -2.68 4 -2 4 C-2 3.34 -2 2.68 -2 2 C-1.34 2 -0.68 2 0 2 C0 1.34 0 0.68 0 0 Z " fill="#E0C251" transform="translate(740,626)"/>
<path d="M0 0 C0.66 0.33 1.32 0.66 2 1 C1.67 2.32 1.34 3.64 1 5 C0.34 5 -0.32 5 -1 5 C-1 6.32 -1 7.64 -1 9 C-1.66 9 -2.32 9 -3 9 C-3 9.66 -3 10.32 -3 11 C-3.66 11 -4.32 11 -5 11 C-5 12.32 -5 13.64 -5 15 C-7.64 15 -10.28 15 -13 15 C-13 14.34 -13 13.68 -13 13 C-12.319375 12.62875 -11.63875 12.2575 -10.9375 11.875 C-6.47021654 9.02354247 -2.39121931 4.78243862 0 0 Z " fill="#E6CB4B" transform="translate(729,661)"/>
<path d="M0 0 C1.98 0.99 1.98 0.99 4 2 C4 2.66 4 3.32 4 4 C7.96 4 11.92 4 16 4 C16.33 2.68 16.66 1.36 17 0 C17.33 0.66 17.66 1.32 18 2 C18.66 2 19.32 2 20 2 C20 2.66 20 3.32 20 4 C19.34 4 18.68 4 18 4 C18 4.66 18 5.32 18 6 C12.72 6 7.44 6 2 6 C2 5.34 2 4.68 2 4 C1.34 4 0.68 4 0 4 C0 2.68 0 1.36 0 0 Z " fill="#E1C858" transform="translate(738,670)"/>
<path d="M0 0 C0.66 0 1.32 0 2 0 C6.42857143 7.42857143 6.42857143 7.42857143 7 11 C7.66 11 8.32 11 9 11 C10.2890625 12.75 10.2890625 12.75 11.625 15 C12.07101562 15.7425 12.51703125 16.485 12.9765625 17.25 C13.48316406 18.11625 13.48316406 18.11625 14 19 C12.68 18.67 11.36 18.34 10 18 C10 17.34 10 16.68 10 16 C9.34 16 8.68 16 8 16 C8 15.34 8 14.68 8 14 C7.34 14 6.68 14 6 14 C6 12.68 6 11.36 6 10 C5.34 10 4.68 10 4 10 C4 9.34 4 8.68 4 8 C3.34 8 2.68 8 2 8 C2 7.34 2 6.68 2 6 C1.34 6 0.68 6 0 6 C0 4.02 0 2.04 0 0 Z " fill="#E0C350" transform="translate(708,626)"/>
<path d="M0 0 C0.66 0 1.32 0 2 0 C2 0.99 2 1.98 2 3 C3.4800841 2.88637738 4.95910074 2.75877092 6.4375 2.625 C7.67306641 2.52058594 7.67306641 2.52058594 8.93359375 2.4140625 C9.95646484 2.20910156 9.95646484 2.20910156 11 2 C11.33 1.34 11.66 0.68 12 0 C12.66 0 13.32 0 14 0 C14 0.99 14 1.98 14 3 C14.66 3 15.32 3 16 3 C16 3.66 16 4.32 16 5 C14.02 5 12.04 5 10 5 C10 5.66 10 6.32 10 7 C9.34 7 8.68 7 8 7 C8 6.34 8 5.68 8 5 C4.7 5 1.4 5 -2 5 C-2 4.34 -2 3.68 -2 3 C-1.34 3 -0.68 3 0 3 C0 2.01 0 1.02 0 0 Z " fill="#E6CF43" transform="translate(564,671)"/>
<path d="M0 0 C0.33 0.66 0.66 1.32 1 2 C0.34 2 -0.32 2 -1 2 C-1 2.66 -1 3.32 -1 4 C-4.3 4 -7.6 4 -11 4 C-11 4.66 -11 5.32 -11 6 C-12.98 6 -14.96 6 -17 6 C-17 5.01 -17 4.02 -17 3 C-17.66 2.67 -18.32 2.34 -19 2 C-18.04738281 1.93941406 -17.09476562 1.87882813 -16.11328125 1.81640625 C-14.23189453 1.69072266 -14.23189453 1.69072266 -12.3125 1.5625 C-11.07113281 1.48128906 -9.82976562 1.40007813 -8.55078125 1.31640625 C-5.61819663 1.05508683 -2.86558383 0.65201621 0 0 Z " fill="#E1C14E" transform="translate(517,672)"/>
<path d="M0 0 C0.66 0 1.32 0 2 0 C2 1.32 2 2.64 2 4 C3.98 4 5.96 4 8 4 C7.67 4.66 7.34 5.32 7 6 C3.85069107 7.04976964 1.61185544 7.10131595 -1.6875 7.0625 C-2.68136719 7.05347656 -3.67523438 7.04445313 -4.69921875 7.03515625 C-5.83810547 7.01775391 -5.83810547 7.01775391 -7 7 C-7 6.34 -7 5.68 -7 5 C-7.99 4.67 -8.98 4.34 -10 4 C-6.7 4 -3.4 4 0 4 C0 2.68 0 1.36 0 0 Z " fill="#CEB33E" transform="translate(502,658)"/>
<path d="M0 0 C2.64 0 5.28 0 8 0 C8 0.66 8 1.32 8 2 C9.32 2 10.64 2 12 2 C12 2.66 12 3.32 12 4 C13.32 4 14.64 4 16 4 C16 4.66 16 5.32 16 6 C13.625 6.125 13.625 6.125 11 6 C10.34 5.34 9.68 4.68 9 4 C6.41935871 3.85502015 3.95056116 3.81322455 1.375 3.875 C0.66859375 3.88402344 -0.0378125 3.89304687 -0.765625 3.90234375 C-2.51056098 3.92592397 -4.25532295 3.96179539 -6 4 C-6 3.34 -6 2.68 -6 2 C-4.02 2 -2.04 2 0 2 C0 1.34 0 0.68 0 0 Z " fill="#D7BC4E" transform="translate(558,624)"/>
<path d="M0 0 C0.66 0 1.32 0 2 0 C2 1.65 2 3.3 2 5 C1.01 5 0.02 5 -1 5 C-1.13277344 5.77085937 -1.26554687 6.54171875 -1.40234375 7.3359375 C-1.57894531 8.33882812 -1.75554687 9.34171875 -1.9375 10.375 C-2.11152344 11.37273438 -2.28554688 12.37046875 -2.46484375 13.3984375 C-3 16 -3 16 -4 18 C-4.66 18 -5.32 18 -6 18 C-6 15.36 -6 12.72 -6 10 C-5.34 10 -4.68 10 -4 10 C-4 8.68 -4 7.36 -4 6 C-3.34 6 -2.68 6 -2 6 C-2 4.68 -2 3.36 -2 2 C-1.34 2 -0.68 2 0 2 C0 1.34 0 0.68 0 0 Z " fill="#CDAC54" transform="translate(480,612)"/>
<path d="M0 0 C0.66 0 1.32 0 2 0 C2 1.32 2 2.64 2 4 C1.34 4 0.68 4 0 4 C0 4.66 0 5.32 0 6 C-5.94 6 -11.88 6 -18 6 C-16 4 -16 4 -12.7421875 3.8046875 C-11.46601562 3.82789063 -10.18984375 3.85109375 -8.875 3.875 C-6.95300781 3.90207031 -6.95300781 3.90207031 -4.9921875 3.9296875 C-3.51105469 3.96449219 -3.51105469 3.96449219 -2 4 C-1.34 2.68 -0.68 1.36 0 0 Z " fill="#DCBF55" transform="translate(674,670)"/>
<path d="M0 0 C1.74216797 0.04060547 1.74216797 0.04060547 3.51953125 0.08203125 C4.39996094 0.11683594 5.28039062 0.15164063 6.1875 0.1875 C6.1875 0.5175 6.1875 0.8475 6.1875 1.1875 C2.8875 1.1875 -0.4125 1.1875 -3.8125 1.1875 C-3.8125 1.8475 -3.8125 2.5075 -3.8125 3.1875 C-5.1325 3.1875 -6.4525 3.1875 -7.8125 3.1875 C-7.8125 3.8475 -7.8125 4.5075 -7.8125 5.1875 C-8.4725 5.1875 -9.1325 5.1875 -9.8125 5.1875 C-9.8125 5.8475 -9.8125 6.5075 -9.8125 7.1875 C-9.1525 7.1875 -8.4925 7.1875 -7.8125 7.1875 C-7.8125 7.8475 -7.8125 8.5075 -7.8125 9.1875 C-7.1525 9.1875 -6.4925 9.1875 -5.8125 9.1875 C-5.8125 9.8475 -5.8125 10.5075 -5.8125 11.1875 C-10.6875 9.3125 -10.6875 9.3125 -11.8125 8.1875 C-12.1875 5.8125 -12.1875 5.8125 -11.8125 3.1875 C-7.90001622 0.10559937 -4.89032748 -0.14819174 0 0 Z " fill="#E0C245" transform="translate(499.8125,618.8125)"/>
<path d="M0 0 C3.14873527 0.911476 4.66616427 1.51927655 6.5625 4.25 C7 7 7 7 5.3125 10.25 C3 13 3 13 0 14 C0 12.68 0 11.36 0 10 C0.66 10 1.32 10 2 10 C2 9.34 2 8.68 2 8 C2.66 8 3.32 8 4 8 C4 6.68 4 5.36 4 4 C2.68 4 1.36 4 0 4 C0 2.68 0 1.36 0 0 Z " fill="#E5CD3F" transform="translate(718,644)"/>
<path d="M0 0 C0.66 0 1.32 0 2 0 C2 1.32 2 2.64 2 4 C3.98 4 5.96 4 8 4 C8 4.99 8 5.98 8 7 C7.34 7 6.68 7 6 7 C6 6.34 6 5.68 6 5 C4.3739713 5.06000106 2.74898451 5.1487885 1.125 5.25 C0.22007812 5.29640625 -0.68484375 5.3428125 -1.6171875 5.390625 C-4.17110544 5.75611148 -4.17110544 5.75611148 -5.3203125 8.046875 C-5.54460938 8.69140625 -5.76890625 9.3359375 -6 10 C-6.33 9.34 -6.66 8.68 -7 8 C-6.67 7.34 -6.34 6.68 -6 6 C-6.66 6 -7.32 6 -8 6 C-8 5.34 -8 4.68 -8 4 C-6.68 4 -5.36 4 -4 4 C-4 3.34 -4 2.68 -4 2 C-2.68 2 -1.36 2 0 2 C0 1.34 0 0.68 0 0 Z " fill="#ECB74F" transform="translate(698,604)"/>
<path d="M0 0 C1.32 0 2.64 0 4 0 C4 0.99 4 1.98 4 3 C2.741875 3.020625 1.48375 3.04125 0.1875 3.0625 C-2.01699328 3.23042535 -2.01699328 3.23042535 -4 4 C-5.68983507 6.28980909 -6.18962861 8.21434833 -7 11 C-7.33 11 -7.66 11 -8 11 C-8 8.69 -8 6.38 -8 4 C-8.66 4 -9.32 4 -10 4 C-10 3.34 -10 2.68 -10 2 C-6.7 2 -3.4 2 0 2 C0 1.34 0 0.68 0 0 Z " fill="#E2C846" transform="translate(622,624)"/>
<path d="M0 0 C2.31 0 4.62 0 7 0 C7 0.66 7 1.32 7 2 C7.66 2 8.32 2 9 2 C9 3.98 9 5.96 9 8 C8.34 8 7.68 8 7 8 C7 9.32 7 10.64 7 12 C6.34 12 5.68 12 5 12 C5 8.37 5 4.74 5 1 C3.35 1 1.7 1 0 1 C0 0.67 0 0.34 0 0 Z " fill="#E2CE37" transform="translate(651,626)"/>
<path d="M0 0 C2.95970455 0.28102245 5.917288 0.5742918 8.875 0.875 C10.13763672 0.99294922 10.13763672 0.99294922 11.42578125 1.11328125 C12.23144531 1.19707031 13.03710938 1.28085937 13.8671875 1.3671875 C14.61081543 1.44050293 15.35444336 1.51381836 16.12060547 1.58935547 C18 2 18 2 20 4 C14.72 4 9.44 4 4 4 C4 3.34 4 2.68 4 2 C2.68 2 1.36 2 0 2 C0 1.34 0 0.68 0 0 Z " fill="#E2C54B" transform="translate(588,672)"/>
<path d="M0 0 C0.66 1.32 1.32 2.64 2 4 C-1.3 4 -4.6 4 -8 4 C-8 4.66 -8 5.32 -8 6 C-9.32 6.33 -10.64 6.66 -12 7 C-10.1896099 1.56882971 -5.56166796 -0.65431388 0 0 Z " fill="#E2C84A" transform="translate(560,634)"/>
<path d="M0 0 C2.64 0 5.28 0 8 0 C8 0.66 8 1.32 8 2 C10.64 2 13.28 2 16 2 C16 2.33 16 2.66 16 3 C9.4 3.33 2.8 3.66 -4 4 C-4 3.34 -4 2.68 -4 2 C-2.68 2 -1.36 2 0 2 C0 1.34 0 0.68 0 0 Z " fill="#D5B94D" transform="translate(680,624)"/>
<path d="M0 0 C0.66 0 1.32 0 2 0 C2 0.66 2 1.32 2 2 C1.34 2 0.68 2 0 2 C0 1.34 0 0.68 0 0 Z M0 3 C-0.48210938 3.37511719 -0.96421875 3.75023437 -1.4609375 4.13671875 C-5.20826228 7.17281658 -7.51647495 9.27969302 -9 14 C-9.99 14.495 -9.99 14.495 -11 15 C-10.25 8.375 -10.25 8.375 -8 5 C-7.34 5 -6.68 5 -6 5 C-6 4.34 -6 3.68 -6 3 C-3.50907189 1.75453595 -2.58919267 2.2232422 0 3 Z " fill="#E6C853" transform="translate(646,612)"/>
<path d="M0 0 C1.32 0 2.64 0 4 0 C4 5.28 4 10.56 4 16 C1.53671002 13.53671002 1.6745935 12.52502169 1.4375 9.125 C1.20635892 5.9644995 0.85941306 3.05411252 0 0 Z " fill="#EBCD64" transform="translate(542,610)"/>
<path d="M0 0 C2 3 2 3 2 5 C3.32 4.67 4.64 4.34 6 4 C6 4.99 6 5.98 6 7 C3.03 7 0.06 7 -3 7 C-2.25 2.25 -2.25 2.25 0 0 Z " fill="#EAD05C" transform="translate(713,667)"/>
<path d="M0 0 C0.66 0 1.32 0 2 0 C2.94238698 2.82716095 3.13465647 4.63176123 3.125 7.5625 C3.12757813 8.34753906 3.13015625 9.13257813 3.1328125 9.94140625 C3 12 3 12 2 14 C1.34 14 0.68 14 0 14 C0 9.38 0 4.76 0 0 Z " fill="#E1C93C" transform="translate(690,610)"/>
<path d="M0 0 C0.66 0 1.32 0 2 0 C2 0.66 2 1.32 2 2 C2.66 2 3.32 2 4 2 C4.33 1.34 4.66 0.68 5 0 C5.125 7.75 5.125 7.75 4 10 C3.34 10 2.68 10 2 10 C1.34 6.7 0.68 3.4 0 0 Z " fill="#DAB74A" transform="translate(656,662)"/>
<path d="M0 0 C0.2475 0.556875 0.495 1.11375 0.75 1.6875 C1.97197763 4.12358711 1.97197763 4.12358711 4 6.4375 C5.93700009 8.91928137 6.98570439 11.04163782 8 14 C7.34 14 6.68 14 6 14 C6 13.34 6 12.68 6 12 C5.34 12 4.68 12 4 12 C4 11.34 4 10.68 4 10 C3.34 10 2.68 10 2 10 C2 9.34 2 8.68 2 8 C1.34 8 0.68 8 0 8 C0 5.36 0 2.72 0 0 Z " fill="#DABF3E" transform="translate(476,628)"/>
<path d="M0 0 C0.99 0.33 1.98 0.66 3 1 C2.34 1 1.68 1 1 1 C1.99 4.63 2.98 8.26 4 12 C2.68 12 1.36 12 0 12 C0 10.02 0 8.04 0 6 C-0.66 6 -1.32 6 -2 6 C-2 4.68 -2 3.36 -2 2 C-1.34 2 -0.68 2 0 2 C0 1.34 0 0.68 0 0 Z " fill="#C7A658" transform="translate(474,652)"/>
<path d="M0 0 C0.66 0 1.32 0 2 0 C2 0.66 2 1.32 2 2 C2.66 2 3.32 2 4 2 C4 2.66 4 3.32 4 4 C3.34 4 2.68 4 2 4 C2 4.66 2 5.32 2 6 C1.34 6 0.68 6 0 6 C0 7.32 0 8.64 0 10 C-0.99 10 -1.98 10 -3 10 C-2.49287967 6.28111761 -1.88391785 3.26545761 0 0 Z " fill="#E3D338" transform="translate(754,624)"/>
<path d="M0 0 C0.625 1.8125 0.625 1.8125 1 4 C0.01 5.485 0.01 5.485 -1 7 C-1.66 7 -2.32 7 -3 7 C-3.28875 7.639375 -3.5775 8.27875 -3.875 8.9375 C-5 11 -5 11 -7 12 C-6.67506385 8.4257023 -6.36129314 6.44287547 -4.0625 3.625 C-2 2 -2 2 0 2 C0 1.34 0 0.68 0 0 Z " fill="#E8CD54" transform="translate(721,655)"/>
<path d="M0 0 C2.45331002 3.67996503 2.39507893 5.65413172 2 10 C1.01 10.66 0.02 11.32 -1 12 C-0.67 10.35 -0.34 8.7 0 7 C-0.66 7 -1.32 7 -2 7 C-2 5.68 -2 4.36 -2 3 C-1.34 3 -0.68 3 0 3 C0 2.01 0 1.02 0 0 Z " fill="#E4C75D" transform="translate(614,651)"/>
<path d="M0 0 C0.66 0 1.32 0 2 0 C2 0.66 2 1.32 2 2 C3.98 2 5.96 2 8 2 C8 3.32 8 4.64 8 6 C4.7 5.34 1.4 4.68 -2 4 C-2 3.34 -2 2.68 -2 2 C-1.34 2 -0.68 2 0 2 C0 1.34 0 0.68 0 0 Z " fill="#BCA93D" transform="translate(480,648)"/>
<path d="M0 0 C3.92234364 0.54730376 7.45779454 1.17829434 11 3 C11.33 3.99 11.66 4.98 12 6 C10.02 6 8.04 6 6 6 C6 5.34 6 4.68 6 4 C5.34 4 4.68 4 4 4 C3.67 3.34 3.34 2.68 3 2 C2.01 1.34 1.02 0.68 0 0 Z " fill="#E2C742" transform="translate(500,646)"/>
<path d="M0 0 C0.99 0 1.98 0 3 0 C3 0.66 3 1.32 3 2 C3.66 2 4.32 2 5 2 C5 3.98 5 5.96 5 8 C3.68 8 2.36 8 1 8 C0.67 5.36 0.34 2.72 0 0 Z " fill="#E9C658" transform="translate(701,609)"/>
<path d="M0 0 C1.32 0 2.64 0 4 0 C4 0.66 4 1.32 4 2 C5.32 2 6.64 2 8 2 C8 2.66 8 3.32 8 4 C2.06 3.67 -3.88 3.34 -10 3 C-10 2.67 -10 2.34 -10 2 C-6.7 2 -3.4 2 0 2 C0 1.34 0 0.68 0 0 Z " fill="#DFB051" transform="translate(506,606)"/>
<path d="M0 0 C0.99 0 1.98 0 3 0 C2.566875 1.2065625 2.566875 1.2065625 2.125 2.4375 C0.81642821 6.58131067 -0.11217765 10.74978663 -1 15 C-1.33 15 -1.66 15 -2 15 C-2.05429959 13.25034642 -2.09292823 11.50020213 -2.125 9.75 C-2.15980469 8.28820312 -2.15980469 8.28820312 -2.1953125 6.796875 C-1.99862781 3.9803502 -1.44568916 2.39050964 0 0 Z " fill="#E7CD5A" transform="translate(479,617)"/>
<path d="M0 0 C2.55028983 1.27514492 2.93081711 2.40341297 4 5 C4 5.99 4 6.98 4 8 C3.34 8 2.68 8 2 8 C2 7.34 2 6.68 2 6 C0.02 6 -1.96 6 -4 6 C-4 5.34 -4 4.68 -4 4 C-2.68 4 -1.36 4 0 4 C0 2.68 0 1.36 0 0 Z " fill="#E9D538" transform="translate(636,666)"/>
<path d="M0 0 C4.46839215 -0.21278058 7.82262526 0.40861915 12 2 C11.67 2.99 11.34 3.98 11 5 C7.37 4.01 3.74 3.02 0 2 C0 1.34 0 0.68 0 0 Z " fill="#EECE58" transform="translate(498,633)"/>
<path d="M0 0 C2.05078125 0.03255208 4.1015625 0.06510417 6.15234375 0.09765625 C6.48234375 0.75765625 6.81234375 1.41765625 7.15234375 2.09765625 C5.89421875 2.20078125 4.63609375 2.30390625 3.33984375 2.41015625 C0.54734718 2.74624433 -0.59198746 2.89791501 -2.84765625 4.66015625 C-3.17765625 5.13453125 -3.50765625 5.60890625 -3.84765625 6.09765625 C-2.77957394 0.14691194 -2.77957394 0.14691194 0 0 Z " fill="#E9CB5C" transform="translate(619.84765625,626.90234375)"/>
<path d="M0 0 C0.66 0.33 1.32 0.66 2 1 C1.23832543 2.46313772 0.46529293 3.92036661 -0.3125 5.375 C-0.95638672 6.59316406 -0.95638672 6.59316406 -1.61328125 7.8359375 C-3 10 -3 10 -6 12 C-6 10.68 -6 9.36 -6 8 C-5.34 8 -4.68 8 -4 8 C-4 7.34 -4 6.68 -4 6 C-3.34 6 -2.68 6 -2 6 C-2 4.68 -2 3.36 -2 2 C-1.34 2 -0.68 2 0 2 C0 1.34 0 0.68 0 0 Z " fill="#D6BA4E" transform="translate(716,658)"/>
<path d="M0 0 C0 0.66 0 1.32 0 2 C-0.66 2 -1.32 2 -2 2 C-1.34 4.64 -0.68 7.28 0 10 C-0.99 10.495 -0.99 10.495 -2 11 C-2 10.34 -2 9.68 -2 9 C-2.66 9 -3.32 9 -4 9 C-4 6.36 -4 3.72 -4 1 C-2 0 -2 0 0 0 Z " fill="#EFCF5A" transform="translate(636,627)"/>
<path d="M0 0 C1.17046875 0.03609375 2.3409375 0.0721875 3.546875 0.109375 C4.43890625 0.15578125 5.3309375 0.2021875 6.25 0.25 C6.25 0.58 6.25 0.91 6.25 1.25 C5.50234375 1.28738281 4.7546875 1.32476563 3.984375 1.36328125 C2.99953125 1.42902344 2.0146875 1.49476563 1 1.5625 C0.02546875 1.62050781 -0.9490625 1.67851563 -1.953125 1.73828125 C-5.00341611 2.29636524 -6.45711276 3.21369776 -8.75 5.25 C-9.41 4.92 -10.07 4.59 -10.75 4.25 C-7.43152371 0.07726249 -5.22729025 -0.20909161 0 0 Z " fill="#E8C950" transform="translate(495.75,608.75)"/>
<path d="M0 0 C0.66 0 1.32 0 2 0 C2.33 1.65 2.66 3.3 3 5 C5.97 5.33 8.94 5.66 12 6 C12 6.33 12 6.66 12 7 C8.04 7 4.08 7 0 7 C0 4.69 0 2.38 0 0 Z " fill="#131203" transform="translate(620,593)"/>
<path d="M0 0 C0.99 0 1.98 0 3 0 C3 0.99 3 1.98 3 3 C5.97 3 8.94 3 12 3 C12 3.33 12 3.66 12 4 C5.565 4.495 5.565 4.495 -1 5 C-0.67 3.35 -0.34 1.7 0 0 Z " fill="#E5B961" transform="translate(691,671)"/>
<path d="M0 0 C0.99 0.66 1.98 1.32 3 2 C3 2.66 3 3.32 3 4 C1.68 4 0.36 4 -1 4 C-1 5.32 -1 6.64 -1 8 C-1.66 8 -2.32 8 -3 8 C-3.33 7.01 -3.66 6.02 -4 5 C-2.0625 2.3125 -2.0625 2.3125 0 0 Z " fill="#EED141" transform="translate(749,634)"/>
<path d="M0 0 C4.62 0 9.24 0 14 0 C13.67 0.99 13.34 1.98 13 3 C8.71 2.67 4.42 2.34 0 2 C0 1.34 0 0.68 0 0 Z " fill="#DABC51" transform="translate(660,626)"/>
<path d="M0 0 C2.97 0 5.94 0 9 0 C9 0.99 9 1.98 9 3 C6.36 3 3.72 3 1 3 C0.67 2.01 0.34 1.02 0 0 Z " fill="#EBCE60" transform="translate(617,671)"/>
<path d="M0 0 C1.32 0 2.64 0 4 0 C4 1.32 4 2.64 4 4 C4.66 4 5.32 4 6 4 C6 4.66 6 5.32 6 6 C4.35 6 2.7 6 1 6 C0.67 4.02 0.34 2.04 0 0 Z " fill="#EDDB39" transform="translate(750,664)"/>
<path d="M0 0 C0.99 0.33 1.98 0.66 3 1 C3 1.99 3 2.98 3 4 C3.66 4 4.32 4 5 4 C5 5.98 5 7.96 5 10 C2.08772731 6.71195019 0.50298788 4.40114397 0 0 Z " fill="#F0CF5E" transform="translate(521,643)"/>
<path d="M0 0 C0.33 1.32 0.66 2.64 1 4 C0.34 4 -0.32 4 -1 4 C-1 5.32 -1 6.64 -1 8 C-2.32 8.33 -3.64 8.66 -5 9 C-3.7508258 5.54074837 -2.32472205 2.85306797 0 0 Z " fill="#EAC350" transform="translate(745,640)"/>
<path d="M0 0 C2.31 0 4.62 0 7 0 C6.67 0.99 6.34 1.98 6 3 C3.69 3 1.38 3 -1 3 C-0.67 2.01 -0.34 1.02 0 0 Z " fill="#E6C849" transform="translate(673,628)"/>
<path d="M0 0 C0.66 0 1.32 0 2 0 C3.76462683 3.08809695 4 4.23312136 4 8 C3.34 8 2.68 8 2 8 C2 7.34 2 6.68 2 6 C1.34 6 0.68 6 0 6 C0 4.02 0 2.04 0 0 Z " fill="#CAB054" transform="translate(708,626)"/>
<path d="M0 0 C0.66 0 1.32 0 2 0 C2 1.65 2 3.3 2 5 C1.34 5 0.68 5 0 5 C-0.33 5.99 -0.66 6.98 -1 8 C-1.99 8 -2.98 8 -4 8 C-4 7.34 -4 6.68 -4 6 C-3.34 6 -2.68 6 -2 6 C-2 5.34 -2 4.68 -2 4 C-1.34 4 -0.68 4 0 4 C0 2.68 0 1.36 0 0 Z " fill="#DABF36" transform="translate(486,606)"/>
<path d="M0 0 C0.33 0.66 0.66 1.32 1 2 C1.66 2 2.32 2 3 2 C3 2.66 3 3.32 3 4 C2.34 4 1.68 4 1 4 C1 4.66 1 5.32 1 6 C-0.65 6 -2.3 6 -4 6 C-3.67 5.34 -3.34 4.68 -3 4 C-2.34 4 -1.68 4 -1 4 C-0.67 2.68 -0.34 1.36 0 0 Z " fill="#D4C061" transform="translate(755,670)"/>
<path d="M0 0 C0.103125 0.639375 0.20625 1.27875 0.3125 1.9375 C0.539375 2.618125 0.76625 3.29875 1 4 C1.99 4.33 2.98 4.66 4 5 C1.69 5 -0.62 5 -3 5 C-3.33 3.68 -3.66 2.36 -4 1 C-2.68 0.67 -1.36 0.34 0 0 Z " fill="#DFC551" transform="translate(491,671)"/>
<path d="M0 0 C0.99 0 1.98 0 3 0 C2.67 3.3 2.34 6.6 2 10 C1.34 9.67 0.68 9.34 0 9 C-0.99444068 5.65506316 -1.10348268 3.31044803 0 0 Z " fill="#E3C75D" transform="translate(750,626)"/>
<path d="M0 0 C0.66 0 1.32 0 2 0 C1.74438677 2.3431213 1.40729228 4.67843403 1 7 C0.01 7.495 0.01 7.495 -1 8 C-1.04241723 5.66705225 -1.04092937 3.33297433 -1 1 C-0.67 0.67 -0.34 0.34 0 0 Z " fill="#E5C555" transform="translate(564,656)"/>
<path d="M0 0 C0.99 0.495 0.99 0.495 2 1 C2.59355614 3.64860427 2.74209269 6.29197322 3 9 C2.01 9.495 2.01 9.495 1 10 C0.67 6.7 0.34 3.4 0 0 Z " fill="#E1C24B" transform="translate(562,638)"/>
<path d="M0 0 C0.66 0 1.32 0 2 0 C2 0.66 2 1.32 2 2 C2.66 2.33 3.32 2.66 4 3 C3.34 3 2.68 3 2 3 C2.99 4.485 2.99 4.485 4 6 C3.67 6.99 3.34 7.98 3 9 C0.90250005 6.64031256 0.03094296 5.45383006 -0.1875 2.25 C-0.125625 1.5075 -0.06375 0.765 0 0 Z " fill="#ECBB6D" transform="translate(710,624)"/>
<path d="M0 0 C0.66 0 1.32 0 2 0 C2.125 2.875 2.125 2.875 2 6 C1.34 6.66 0.68 7.32 0 8 C0 7.34 0 6.68 0 6 C-0.66 6 -1.32 6 -2 6 C-2 5.34 -2 4.68 -2 4 C-1.34 4 -0.68 4 0 4 C0 2.68 0 1.36 0 0 Z " fill="#E7D62C" transform="translate(582,626)"/>
<path d="M0 0 C0.66 0 1.32 0 2 0 C2 0.66 2 1.32 2 2 C2.66 2 3.32 2 4 2 C4 2.66 4 3.32 4 4 C3.34 4 2.68 4 2 4 C2 4.66 2 5.32 2 6 C1.34 6 0.68 6 0 6 C0 4.02 0 2.04 0 0 Z " fill="#FFFF00" transform="translate(708,650)"/>
<path d="M0 0 C1.32 0 2.64 0 4 0 C4 0.66 4 1.32 4 2 C2.68 2 1.36 2 0 2 C0 1.34 0 0.68 0 0 Z " fill="#FFFF00" transform="translate(754,680)"/>
<path d="M0 0 C0.66 0 1.32 0 2 0 C2 1.32 2 2.64 2 4 C1.34 4 0.68 4 0 4 C0 2.68 0 1.36 0 0 Z " fill="#FFDF40" transform="translate(708,658)"/>
<path d="M0 0 C1.32 0 2.64 0 4 0 C4 0.66 4 1.32 4 2 C2.68 2 1.36 2 0 2 C0 1.34 0 0.68 0 0 Z " fill="#000000" transform="translate(462,606)"/>
<path d="M0 0 C0.66 0 1.32 0 2 0 C2 1.32 2 2.64 2 4 C1.34 4 0.68 4 0 4 C0 2.68 0 1.36 0 0 Z " fill="#7F3F00" transform="translate(634,602)"/>
<path d="M0 0 C0.66 0 1.32 0 2 0 C2 1.32 2 2.64 2 4 C1.34 4 0.68 4 0 4 C0 2.68 0 1.36 0 0 Z " fill="#000000" transform="translate(656,598)"/>
<path d="M0 0 C0.66 0 1.32 0 2 0 C2 1.32 2 2.64 2 4 C1.34 4 0.68 4 0 4 C0 2.68 0 1.36 0 0 Z " fill="#000000" transform="translate(560,574)"/>
<path d="M0 0 C0.66 0 1.32 0 2 0 C2 1.32 2 2.64 2 4 C1.34 4 0.68 4 0 4 C0 2.68 0 1.36 0 0 Z " fill="#000000" transform="translate(456,564)"/>
<path d="M0 0 C1.32 0 2.64 0 4 0 C4 0.66 4 1.32 4 2 C2.68 2 1.36 2 0 2 C0 1.34 0 0.68 0 0 Z " fill="#000000" transform="translate(538,530)"/>
<path d="M0 0 C0.66 0 1.32 0 2 0 C2 0.66 2 1.32 2 2 C1.34 2 0.68 2 0 2 C0 1.34 0 0.68 0 0 Z " fill="#FFFF00" transform="translate(702,686)"/>
<path d="M0 0 C0.66 0 1.32 0 2 0 C2 0.66 2 1.32 2 2 C1.34 2 0.68 2 0 2 C0 1.34 0 0.68 0 0 Z " fill="#FFFF00" transform="translate(680,686)"/>
<path d="M0 0 C0.66 0 1.32 0 2 0 C2 0.66 2 1.32 2 2 C1.34 2 0.68 2 0 2 C0 1.34 0 0.68 0 0 Z " fill="#FFFF00" transform="translate(610,686)"/>
<path d="M0 0 C0.66 0 1.32 0 2 0 C2 0.66 2 1.32 2 2 C1.34 2 0.68 2 0 2 C0 1.34 0 0.68 0 0 Z " fill="#000000" transform="translate(492,686)"/>
<path d="M0 0 C0.66 0 1.32 0 2 0 C2 0.66 2 1.32 2 2 C1.34 2 0.68 2 0 2 C0 1.34 0 0.68 0 0 Z " fill="#000000" transform="translate(434,686)"/>
<path d="M0 0 C0.66 0 1.32 0 2 0 C2 0.66 2 1.32 2 2 C1.34 2 0.68 2 0 2 C0 1.34 0 0.68 0 0 Z " fill="#000000" transform="translate(416,686)"/>
<path d="M0 0 C0.66 0 1.32 0 2 0 C2 0.66 2 1.32 2 2 C1.34 2 0.68 2 0 2 C0 1.34 0 0.68 0 0 Z " fill="#000000" transform="translate(346,686)"/>
<path d="M0 0 C0.66 0 1.32 0 2 0 C2 0.66 2 1.32 2 2 C1.34 2 0.68 2 0 2 C0 1.34 0 0.68 0 0 Z " fill="#FFFF00" transform="translate(720,684)"/>
<path d="M0 0 C0.66 0 1.32 0 2 0 C2 0.66 2 1.32 2 2 C1.34 2 0.68 2 0 2 C0 1.34 0 0.68 0 0 Z " fill="#FFFF00" transform="translate(696,684)"/>
<path d="M0 0 C0.66 0 1.32 0 2 0 C2 0.66 2 1.32 2 2 C1.34 2 0.68 2 0 2 C0 1.34 0 0.68 0 0 Z " fill="#FFFF00" transform="translate(662,684)"/>
<path d="M0 0 C0.66 0 1.32 0 2 0 C2 0.66 2 1.32 2 2 C1.34 2 0.68 2 0 2 C0 1.34 0 0.68 0 0 Z " fill="#FFFF00" transform="translate(624,684)"/>
<path d="M0 0 C0.66 0 1.32 0 2 0 C2 0.66 2 1.32 2 2 C1.34 2 0.68 2 0 2 C0 1.34 0 0.68 0 0 Z " fill="#000000" transform="translate(518,684)"/>
<path d="M0 0 C0.66 0 1.32 0 2 0 C2 0.66 2 1.32 2 2 C1.34 2 0.68 2 0 2 C0 1.34 0 0.68 0 0 Z " fill="#000000" transform="translate(440,684)"/>
<path d="M0 0 C0.66 0 1.32 0 2 0 C2 0.66 2 1.32 2 2 C1.34 2 0.68 2 0 2 C0 1.34 0 0.68 0 0 Z " fill="#000000" transform="translate(436,684)"/>
<path d="M0 0 C0.66 0 1.32 0 2 0 C2 0.66 2 1.32 2 2 C1.34 2 0.68 2 0 2 C0 1.34 0 0.68 0 0 Z " fill="#000000" transform="translate(364,684)"/>
<path d="M0 0 C0.66 0 1.32 0 2 0 C2 0.66 2 1.32 2 2 C1.34 2 0.68 2 0 2 C0 1.34 0 0.68 0 0 Z " fill="#FF7F00" transform="translate(594,682)"/>
<path d="M0 0 C0.66 0 1.32 0 2 0 C2 0.66 2 1.32 2 2 C1.34 2 0.68 2 0 2 C0 1.34 0 0.68 0 0 Z " fill="#FF7F00" transform="translate(578,682)"/>
<path d="M0 0 C0.66 0 1.32 0 2 0 C2 0.66 2 1.32 2 2 C1.34 2 0.68 2 0 2 C0 1.34 0 0.68 0 0 Z " fill="#FFFF00" transform="translate(716,682)"/>
<path d="M0 0 C0.66 0 1.32 0 2 0 C2 0.66 2 1.32 2 2 C1.34 2 0.68 2 0 2 C0 1.34 0 0.68 0 0 Z " fill="#FFFF00" transform="translate(648,682)"/>
<path d="M0 0 C0.66 0 1.32 0 2 0 C2 0.66 2 1.32 2 2 C1.34 2 0.68 2 0 2 C0 1.34 0 0.68 0 0 Z " fill="#000000" transform="translate(524,682)"/>
<path d="M0 0 C0.66 0 1.32 0 2 0 C2 0.66 2 1.32 2 2 C1.34 2 0.68 2 0 2 C0 1.34 0 0.68 0 0 Z " fill="#7F0000" transform="translate(540,680)"/>
<path d="M0 0 C0.66 0 1.32 0 2 0 C2 0.66 2 1.32 2 2 C1.34 2 0.68 2 0 2 C0 1.34 0 0.68 0 0 Z " fill="#FFFF00" transform="translate(734,680)"/>
<path d="M0 0 C0.66 0 1.32 0 2 0 C2 0.66 2 1.32 2 2 C1.34 2 0.68 2 0 2 C0 1.34 0 0.68 0 0 Z " fill="#FFFF00" transform="translate(690,680)"/>
<path d="M0 0 C0.66 0 1.32 0 2 0 C2 0.66 2 1.32 2 2 C1.34 2 0.68 2 0 2 C0 1.34 0 0.68 0 0 Z " fill="#FFFF00" transform="translate(684,680)"/>
<path d="M0 0 C0.66 0 1.32 0 2 0 C2 0.66 2 1.32 2 2 C1.34 2 0.68 2 0 2 C0 1.34 0 0.68 0 0 Z " fill="#FFFF00" transform="translate(658,680)"/>
<path d="M0 0 C0.66 0 1.32 0 2 0 C2 0.66 2 1.32 2 2 C1.34 2 0.68 2 0 2 C0 1.34 0 0.68 0 0 Z " fill="#FF0000" transform="translate(586,680)"/>
<path d="M0 0 C0.66 0 1.32 0 2 0 C2 0.66 2 1.32 2 2 C1.34 2 0.68 2 0 2 C0 1.34 0 0.68 0 0 Z " fill="#000000" transform="translate(552,680)"/>
<path d="M0 0 C0.66 0 1.32 0 2 0 C2 0.66 2 1.32 2 2 C1.34 2 0.68 2 0 2 C0 1.34 0 0.68 0 0 Z " fill="#000000" transform="translate(366,680)"/>
<path d="M0 0 C0.66 0 1.32 0 2 0 C2 0.66 2 1.32 2 2 C1.34 2 0.68 2 0 2 C0 1.34 0 0.68 0 0 Z " fill="#FFFF00" transform="translate(682,678)"/>
<path d="M0 0 C0.66 0 1.32 0 2 0 C2 0.66 2 1.32 2 2 C1.34 2 0.68 2 0 2 C0 1.34 0 0.68 0 0 Z " fill="#FFFF00" transform="translate(596,678)"/>
<path d="M0 0 C0.66 0 1.32 0 2 0 C2 0.66 2 1.32 2 2 C1.34 2 0.68 2 0 2 C0 1.34 0 0.68 0 0 Z " fill="#FFFF00" transform="translate(494,678)"/>
<path d="M0 0 C0.66 0 1.32 0 2 0 C2 0.66 2 1.32 2 2 C1.34 2 0.68 2 0 2 C0 1.34 0 0.68 0 0 Z " fill="#000000" transform="translate(416,678)"/>
<path d="M0 0 C0.66 0 1.32 0 2 0 C2 0.66 2 1.32 2 2 C1.34 2 0.68 2 0 2 C0 1.34 0 0.68 0 0 Z " fill="#FFFF00" transform="translate(612,676)"/>
<path d="M0 0 C0.66 0 1.32 0 2 0 C2 0.66 2 1.32 2 2 C1.34 2 0.68 2 0 2 C0 1.34 0 0.68 0 0 Z " fill="#000000" transform="translate(556,676)"/>
<path d="M0 0 C0.66 0 1.32 0 2 0 C2 0.66 2 1.32 2 2 C1.34 2 0.68 2 0 2 C0 1.34 0 0.68 0 0 Z " fill="#FFFF00" transform="translate(520,676)"/>
<path d="M0 0 C0.66 0 1.32 0 2 0 C2 0.66 2 1.32 2 2 C1.34 2 0.68 2 0 2 C0 1.34 0 0.68 0 0 Z " fill="#000000" transform="translate(422,676)"/>
<path d="M0 0 C0.66 0 1.32 0 2 0 C2 0.66 2 1.32 2 2 C1.34 2 0.68 2 0 2 C0 1.34 0 0.68 0 0 Z " fill="#FF7F00" transform="translate(686,672)"/>
<path d="M0 0 C0.66 0 1.32 0 2 0 C2 0.66 2 1.32 2 2 C1.34 2 0.68 2 0 2 C0 1.34 0 0.68 0 0 Z " fill="#7F0000" transform="translate(558,672)"/>
<path d="M0 0 C0.66 0 1.32 0 2 0 C2 0.66 2 1.32 2 2 C1.34 2 0.68 2 0 2 C0 1.34 0 0.68 0 0 Z " fill="#FFFF00" transform="translate(760,670)"/>
<path d="M0 0 C0.66 0 1.32 0 2 0 C2 0.66 2 1.32 2 2 C1.34 2 0.68 2 0 2 C0 1.34 0 0.68 0 0 Z " fill="#FFFF00" transform="translate(732,670)"/>
<path d="M0 0 C0.66 0 1.32 0 2 0 C2 0.66 2 1.32 2 2 C1.34 2 0.68 2 0 2 C0 1.34 0 0.68 0 0 Z " fill="#000000" transform="translate(392,670)"/>
<path d="M0 0 C0.66 0 1.32 0 2 0 C2 0.66 2 1.32 2 2 C1.34 2 0.68 2 0 2 C0 1.34 0 0.68 0 0 Z " fill="#000000" transform="translate(374,670)"/>
<path d="M0 0 C0.66 0 1.32 0 2 0 C2 0.66 2 1.32 2 2 C1.34 2 0.68 2 0 2 C0 1.34 0 0.68 0 0 Z " fill="#000000" transform="translate(398,668)"/>
<path d="M0 0 C0.66 0 1.32 0 2 0 C2 0.66 2 1.32 2 2 C1.34 2 0.68 2 0 2 C0 1.34 0 0.68 0 0 Z " fill="#000000" transform="translate(342,668)"/>
<path d="M0 0 C0.66 0 1.32 0 2 0 C2 0.66 2 1.32 2 2 C1.34 2 0.68 2 0 2 C0 1.34 0 0.68 0 0 Z " fill="#FFFF00" transform="translate(766,666)"/>
<path d="M0 0 C0.66 0 1.32 0 2 0 C2 0.66 2 1.32 2 2 C1.34 2 0.68 2 0 2 C0 1.34 0 0.68 0 0 Z " fill="#000000" transform="translate(468,666)"/>
<path d="M0 0 C0.66 0 1.32 0 2 0 C2 0.66 2 1.32 2 2 C1.34 2 0.68 2 0 2 C0 1.34 0 0.68 0 0 Z " fill="#000000" transform="translate(388,664)"/>
<path d="M0 0 C0.66 0 1.32 0 2 0 C2 0.66 2 1.32 2 2 C1.34 2 0.68 2 0 2 C0 1.34 0 0.68 0 0 Z " fill="#FFFF00" transform="translate(580,662)"/>
<path d="M0 0 C0.66 0 1.32 0 2 0 C2 0.66 2 1.32 2 2 C1.34 2 0.68 2 0 2 C0 1.34 0 0.68 0 0 Z " fill="#000000" transform="translate(466,662)"/>
<path d="M0 0 C0.66 0 1.32 0 2 0 C2 0.66 2 1.32 2 2 C1.34 2 0.68 2 0 2 C0 1.34 0 0.68 0 0 Z " fill="#000000" transform="translate(390,660)"/>
<path d="M0 0 C0.66 0 1.32 0 2 0 C2 0.66 2 1.32 2 2 C1.34 2 0.68 2 0 2 C0 1.34 0 0.68 0 0 Z " fill="#000000" transform="translate(464,658)"/>
<path d="M0 0 C0.66 0 1.32 0 2 0 C2 0.66 2 1.32 2 2 C1.34 2 0.68 2 0 2 C0 1.34 0 0.68 0 0 Z " fill="#FF0000" transform="translate(760,656)"/>
<path d="M0 0 C0.66 0 1.32 0 2 0 C2 0.66 2 1.32 2 2 C1.34 2 0.68 2 0 2 C0 1.34 0 0.68 0 0 Z " fill="#000000" transform="translate(468,656)"/>
<path d="M0 0 C0.66 0 1.32 0 2 0 C2 0.66 2 1.32 2 2 C1.34 2 0.68 2 0 2 C0 1.34 0 0.68 0 0 Z " fill="#000000" transform="translate(402,656)"/>
<path d="M0 0 C0.66 0 1.32 0 2 0 C2 0.66 2 1.32 2 2 C1.34 2 0.68 2 0 2 C0 1.34 0 0.68 0 0 Z " fill="#FFFF00" transform="translate(506,654)"/>
<path d="M0 0 C0.66 0 1.32 0 2 0 C2 0.66 2 1.32 2 2 C1.34 2 0.68 2 0 2 C0 1.34 0 0.68 0 0 Z " fill="#FFFF00" transform="translate(716,652)"/>
<path d="M0 0 C0.66 0 1.32 0 2 0 C2 0.66 2 1.32 2 2 C1.34 2 0.68 2 0 2 C0 1.34 0 0.68 0 0 Z " fill="#000000" transform="translate(406,650)"/>
<path d="M0 0 C0.66 0 1.32 0 2 0 C2 0.66 2 1.32 2 2 C1.34 2 0.68 2 0 2 C0 1.34 0 0.68 0 0 Z " fill="#000000" transform="translate(410,648)"/>
<path d="M0 0 C0.66 0 1.32 0 2 0 C2 0.66 2 1.32 2 2 C1.34 2 0.68 2 0 2 C0 1.34 0 0.68 0 0 Z " fill="#000000" transform="translate(466,646)"/>
<path d="M0 0 C0.66 0 1.32 0 2 0 C2 0.66 2 1.32 2 2 C1.34 2 0.68 2 0 2 C0 1.34 0 0.68 0 0 Z " fill="#FFFF00" transform="translate(748,644)"/>
<path d="M0 0 C0.66 0 1.32 0 2 0 C2 0.66 2 1.32 2 2 C1.34 2 0.68 2 0 2 C0 1.34 0 0.68 0 0 Z " fill="#FFFF00" transform="translate(610,644)"/>
<path d="M0 0 C0.66 0 1.32 0 2 0 C2 0.66 2 1.32 2 2 C1.34 2 0.68 2 0 2 C0 1.34 0 0.68 0 0 Z " fill="#000000" transform="translate(424,642)"/>
<path d="M0 0 C0.66 0 1.32 0 2 0 C2 0.66 2 1.32 2 2 C1.34 2 0.68 2 0 2 C0 1.34 0 0.68 0 0 Z " fill="#FFFF00" transform="translate(712,640)"/>
<path d="M0 0 C0.66 0 1.32 0 2 0 C2 0.66 2 1.32 2 2 C1.34 2 0.68 2 0 2 C0 1.34 0 0.68 0 0 Z " fill="#FF7F00" transform="translate(602,638)"/>
<path d="M0 0 C0.66 0 1.32 0 2 0 C2 0.66 2 1.32 2 2 C1.34 2 0.68 2 0 2 C0 1.34 0 0.68 0 0 Z " fill="#FFFF00" transform="translate(754,638)"/>
<path d="M0 0 C0.66 0 1.32 0 2 0 C2 0.66 2 1.32 2 2 C1.34 2 0.68 2 0 2 C0 1.34 0 0.68 0 0 Z " fill="#FFFF00" transform="translate(708,638)"/>
<path d="M0 0 C0.66 0 1.32 0 2 0 C2 0.66 2 1.32 2 2 C1.34 2 0.68 2 0 2 C0 1.34 0 0.68 0 0 Z " fill="#000000" transform="translate(344,638)"/>
<path d="M0 0 C0.66 0 1.32 0 2 0 C2 0.66 2 1.32 2 2 C1.34 2 0.68 2 0 2 C0 1.34 0 0.68 0 0 Z " fill="#000000" transform="translate(470,632)"/>
<path d="M0 0 C0.66 0 1.32 0 2 0 C2 0.66 2 1.32 2 2 C1.34 2 0.68 2 0 2 C0 1.34 0 0.68 0 0 Z " fill="#3F0000" transform="translate(604,630)"/>
<path d="M0 0 C0.66 0 1.32 0 2 0 C2 0.66 2 1.32 2 2 C1.34 2 0.68 2 0 2 C0 1.34 0 0.68 0 0 Z " fill="#FFFF00" transform="translate(600,630)"/>
<path d="M0 0 C0.66 0 1.32 0 2 0 C2 0.66 2 1.32 2 2 C1.34 2 0.68 2 0 2 C0 1.34 0 0.68 0 0 Z " fill="#000000" transform="translate(464,630)"/>
<path d="M0 0 C0.66 0 1.32 0 2 0 C2 0.66 2 1.32 2 2 C1.34 2 0.68 2 0 2 C0 1.34 0 0.68 0 0 Z " fill="#FFFF00" transform="translate(760,628)"/>
<path d="M0 0 C0.66 0 1.32 0 2 0 C2 0.66 2 1.32 2 2 C1.34 2 0.68 2 0 2 C0 1.34 0 0.68 0 0 Z " fill="#FFFF00" transform="translate(766,626)"/>
<path d="M0 0 C0.66 0 1.32 0 2 0 C2 0.66 2 1.32 2 2 C1.34 2 0.68 2 0 2 C0 1.34 0 0.68 0 0 Z " fill="#000000" transform="translate(336,624)"/>
<path d="M0 0 C0.66 0 1.32 0 2 0 C2 0.66 2 1.32 2 2 C1.34 2 0.68 2 0 2 C0 1.34 0 0.68 0 0 Z " fill="#FFFF00" transform="translate(628,622)"/>
<path d="M0 0 C0.66 0 1.32 0 2 0 C2 0.66 2 1.32 2 2 C1.34 2 0.68 2 0 2 C0 1.34 0 0.68 0 0 Z " fill="#000000" transform="translate(466,622)"/>
<path d="M0 0 C0.66 0 1.32 0 2 0 C2 0.66 2 1.32 2 2 C1.34 2 0.68 2 0 2 C0 1.34 0 0.68 0 0 Z " fill="#000000" transform="translate(364,622)"/>
<path d="M0 0 C0.66 0 1.32 0 2 0 C2 0.66 2 1.32 2 2 C1.34 2 0.68 2 0 2 C0 1.34 0 0.68 0 0 Z " fill="#7F7F00" transform="translate(472,620)"/>
<path d="M0 0 C0.66 0 1.32 0 2 0 C2 0.66 2 1.32 2 2 C1.34 2 0.68 2 0 2 C0 1.34 0 0.68 0 0 Z " fill="#FF3F00" transform="translate(630,618)"/>
<path d="M0 0 C0.66 0 1.32 0 2 0 C2 0.66 2 1.32 2 2 C1.34 2 0.68 2 0 2 C0 1.34 0 0.68 0 0 Z " fill="#FFFF00" transform="translate(654,618)"/>
<path d="M0 0 C0.66 0 1.32 0 2 0 C2 0.66 2 1.32 2 2 C1.34 2 0.68 2 0 2 C0 1.34 0 0.68 0 0 Z " fill="#FFFF00" transform="translate(708,616)"/>
<path d="M0 0 C0.66 0 1.32 0 2 0 C2 0.66 2 1.32 2 2 C1.34 2 0.68 2 0 2 C0 1.34 0 0.68 0 0 Z " fill="#000000" transform="translate(472,616)"/>
<path d="M0 0 C0.66 0 1.32 0 2 0 C2 0.66 2 1.32 2 2 C1.34 2 0.68 2 0 2 C0 1.34 0 0.68 0 0 Z " fill="#000000" transform="translate(462,616)"/>
<path d="M0 0 C0.66 0 1.32 0 2 0 C2 0.66 2 1.32 2 2 C1.34 2 0.68 2 0 2 C0 1.34 0 0.68 0 0 Z " fill="#000000" transform="translate(454,616)"/>
<path d="M0 0 C0.66 0 1.32 0 2 0 C2 0.66 2 1.32 2 2 C1.34 2 0.68 2 0 2 C0 1.34 0 0.68 0 0 Z " fill="#000000" transform="translate(376,616)"/>
<path d="M0 0 C0.66 0 1.32 0 2 0 C2 0.66 2 1.32 2 2 C1.34 2 0.68 2 0 2 C0 1.34 0 0.68 0 0 Z " fill="#FFFF00" transform="translate(708,612)"/>
<path d="M0 0 C0.66 0 1.32 0 2 0 C2 0.66 2 1.32 2 2 C1.34 2 0.68 2 0 2 C0 1.34 0 0.68 0 0 Z " fill="#000000" transform="translate(384,612)"/>
<path d="M0 0 C0.66 0 1.32 0 2 0 C2 0.66 2 1.32 2 2 C1.34 2 0.68 2 0 2 C0 1.34 0 0.68 0 0 Z " fill="#FFFF00" transform="translate(638,610)"/>
<path d="M0 0 C0.66 0 1.32 0 2 0 C2 0.66 2 1.32 2 2 C1.34 2 0.68 2 0 2 C0 1.34 0 0.68 0 0 Z " fill="#000000" transform="translate(388,610)"/>
<path d="M0 0 C0.66 0 1.32 0 2 0 C2 0.66 2 1.32 2 2 C1.34 2 0.68 2 0 2 C0 1.34 0 0.68 0 0 Z " fill="#000000" transform="translate(382,610)"/>
<path d="M0 0 C0.66 0 1.32 0 2 0 C2 0.66 2 1.32 2 2 C1.34 2 0.68 2 0 2 C0 1.34 0 0.68 0 0 Z " fill="#FF0000" transform="translate(632,608)"/>
<path d="M0 0 C0.66 0 1.32 0 2 0 C2 0.66 2 1.32 2 2 C1.34 2 0.68 2 0 2 C0 1.34 0 0.68 0 0 Z " fill="#000000" transform="translate(528,608)"/>
<path d="M0 0 C0.66 0 1.32 0 2 0 C2 0.66 2 1.32 2 2 C1.34 2 0.68 2 0 2 C0 1.34 0 0.68 0 0 Z " fill="#000000" transform="translate(392,608)"/>
<path d="M0 0 C0.66 0 1.32 0 2 0 C2 0.66 2 1.32 2 2 C1.34 2 0.68 2 0 2 C0 1.34 0 0.68 0 0 Z " fill="#FF7F00" transform="translate(644,606)"/>
<path d="M0 0 C0.66 0 1.32 0 2 0 C2 0.66 2 1.32 2 2 C1.34 2 0.68 2 0 2 C0 1.34 0 0.68 0 0 Z " fill="#000000" transform="translate(586,606)"/>
<path d="M0 0 C0.66 0 1.32 0 2 0 C2 0.66 2 1.32 2 2 C1.34 2 0.68 2 0 2 C0 1.34 0 0.68 0 0 Z " fill="#000000" transform="translate(556,606)"/>
<path d="M0 0 C0.66 0 1.32 0 2 0 C2 0.66 2 1.32 2 2 C1.34 2 0.68 2 0 2 C0 1.34 0 0.68 0 0 Z " fill="#7F7F00" transform="translate(610,604)"/>
<path d="M0 0 C0.66 0 1.32 0 2 0 C2 0.66 2 1.32 2 2 C1.34 2 0.68 2 0 2 C0 1.34 0 0.68 0 0 Z " fill="#000000" transform="translate(602,602)"/>
<path d="M0 0 C0.66 0 1.32 0 2 0 C2 0.66 2 1.32 2 2 C1.34 2 0.68 2 0 2 C0 1.34 0 0.68 0 0 Z " fill="#000000" transform="translate(574,602)"/>
<path d="M0 0 C0.66 0 1.32 0 2 0 C2 0.66 2 1.32 2 2 C1.34 2 0.68 2 0 2 C0 1.34 0 0.68 0 0 Z " fill="#000000" transform="translate(546,602)"/>
<path d="M0 0 C0.66 0 1.32 0 2 0 C2 0.66 2 1.32 2 2 C1.34 2 0.68 2 0 2 C0 1.34 0 0.68 0 0 Z " fill="#000000" transform="translate(458,602)"/>
<path d="M0 0 C0.66 0 1.32 0 2 0 C2 0.66 2 1.32 2 2 C1.34 2 0.68 2 0 2 C0 1.34 0 0.68 0 0 Z " fill="#000000" transform="translate(714,600)"/>
<path d="M0 0 C0.66 0 1.32 0 2 0 C2 0.66 2 1.32 2 2 C1.34 2 0.68 2 0 2 C0 1.34 0 0.68 0 0 Z " fill="#000000" transform="translate(598,600)"/>
<path d="M0 0 C0.66 0 1.32 0 2 0 C2 0.66 2 1.32 2 2 C1.34 2 0.68 2 0 2 C0 1.34 0 0.68 0 0 Z " fill="#000000" transform="translate(400,600)"/>
<path d="M0 0 C0.66 0 1.32 0 2 0 C2 0.66 2 1.32 2 2 C1.34 2 0.68 2 0 2 C0 1.34 0 0.68 0 0 Z " fill="#000000" transform="translate(336,600)"/>
<path d="M0 0 C0.66 0 1.32 0 2 0 C2 0.66 2 1.32 2 2 C1.34 2 0.68 2 0 2 C0 1.34 0 0.68 0 0 Z " fill="#000000" transform="translate(670,598)"/>
<path d="M0 0 C0.66 0 1.32 0 2 0 C2 0.66 2 1.32 2 2 C1.34 2 0.68 2 0 2 C0 1.34 0 0.68 0 0 Z " fill="#000000" transform="translate(496,598)"/>
<path d="M0 0 C0.66 0 1.32 0 2 0 C2 0.66 2 1.32 2 2 C1.34 2 0.68 2 0 2 C0 1.34 0 0.68 0 0 Z " fill="#000000" transform="translate(412,598)"/>
<path d="M0 0 C0.66 0 1.32 0 2 0 C2 0.66 2 1.32 2 2 C1.34 2 0.68 2 0 2 C0 1.34 0 0.68 0 0 Z " fill="#000000" transform="translate(406,596)"/>
<path d="M0 0 C0.66 0 1.32 0 2 0 C2 0.66 2 1.32 2 2 C1.34 2 0.68 2 0 2 C0 1.34 0 0.68 0 0 Z " fill="#000000" transform="translate(514,594)"/>
<path d="M0 0 C0.66 0 1.32 0 2 0 C2 0.66 2 1.32 2 2 C1.34 2 0.68 2 0 2 C0 1.34 0 0.68 0 0 Z " fill="#000000" transform="translate(464,594)"/>
<path d="M0 0 C0.66 0 1.32 0 2 0 C2 0.66 2 1.32 2 2 C1.34 2 0.68 2 0 2 C0 1.34 0 0.68 0 0 Z " fill="#000000" transform="translate(424,592)"/>
<path d="M0 0 C0.66 0 1.32 0 2 0 C2 0.66 2 1.32 2 2 C1.34 2 0.68 2 0 2 C0 1.34 0 0.68 0 0 Z " fill="#000000" transform="translate(714,590)"/>
<path d="M0 0 C0.66 0 1.32 0 2 0 C2 0.66 2 1.32 2 2 C1.34 2 0.68 2 0 2 C0 1.34 0 0.68 0 0 Z " fill="#7F7F00" transform="translate(660,588)"/>
<path d="M0 0 C0.66 0 1.32 0 2 0 C2 0.66 2 1.32 2 2 C1.34 2 0.68 2 0 2 C0 1.34 0 0.68 0 0 Z " fill="#000000" transform="translate(422,586)"/>
<path d="M0 0 C0.66 0 1.32 0 2 0 C2 0.66 2 1.32 2 2 C1.34 2 0.68 2 0 2 C0 1.34 0 0.68 0 0 Z " fill="#000000" transform="translate(556,584)"/>
<path d="M0 0 C0.66 0 1.32 0 2 0 C2 0.66 2 1.32 2 2 C1.34 2 0.68 2 0 2 C0 1.34 0 0.68 0 0 Z " fill="#7F7F00" transform="translate(660,582)"/>
<path d="M0 0 C0.66 0 1.32 0 2 0 C2 0.66 2 1.32 2 2 C1.34 2 0.68 2 0 2 C0 1.34 0 0.68 0 0 Z " fill="#000000" transform="translate(692,582)"/>
<path d="M0 0 C0.66 0 1.32 0 2 0 C2 0.66 2 1.32 2 2 C1.34 2 0.68 2 0 2 C0 1.34 0 0.68 0 0 Z " fill="#000000" transform="translate(500,582)"/>
<path d="M0 0 C0.66 0 1.32 0 2 0 C2 0.66 2 1.32 2 2 C1.34 2 0.68 2 0 2 C0 1.34 0 0.68 0 0 Z " fill="#000000" transform="translate(462,582)"/>
<path d="M0 0 C0.66 0 1.32 0 2 0 C2 0.66 2 1.32 2 2 C1.34 2 0.68 2 0 2 C0 1.34 0 0.68 0 0 Z " fill="#000000" transform="translate(342,582)"/>
<path d="M0 0 C0.66 0 1.32 0 2 0 C2 0.66 2 1.32 2 2 C1.34 2 0.68 2 0 2 C0 1.34 0 0.68 0 0 Z " fill="#000000" transform="translate(664,580)"/>
<path d="M0 0 C0.66 0 1.32 0 2 0 C2 0.66 2 1.32 2 2 C1.34 2 0.68 2 0 2 C0 1.34 0 0.68 0 0 Z " fill="#000000" transform="translate(448,580)"/>
<path d="M0 0 C0.66 0 1.32 0 2 0 C2 0.66 2 1.32 2 2 C1.34 2 0.68 2 0 2 C0 1.34 0 0.68 0 0 Z " fill="#000000" transform="translate(432,580)"/>
<path d="M0 0 C0.66 0 1.32 0 2 0 C2 0.66 2 1.32 2 2 C1.34 2 0.68 2 0 2 C0 1.34 0 0.68 0 0 Z " fill="#7F7F00" transform="translate(660,578)"/>
<path d="M0 0 C0.66 0 1.32 0 2 0 C2 0.66 2 1.32 2 2 C1.34 2 0.68 2 0 2 C0 1.34 0 0.68 0 0 Z " fill="#000000" transform="translate(458,578)"/>
<path d="M0 0 C0.66 0 1.32 0 2 0 C2 0.66 2 1.32 2 2 C1.34 2 0.68 2 0 2 C0 1.34 0 0.68 0 0 Z " fill="#000000" transform="translate(446,578)"/>
<path d="M0 0 C0.66 0 1.32 0 2 0 C2 0.66 2 1.32 2 2 C1.34 2 0.68 2 0 2 C0 1.34 0 0.68 0 0 Z " fill="#7F7F00" transform="translate(614,576)"/>
<path d="M0 0 C0.66 0 1.32 0 2 0 C2 0.66 2 1.32 2 2 C1.34 2 0.68 2 0 2 C0 1.34 0 0.68 0 0 Z " fill="#000000" transform="translate(556,576)"/>
<path d="M0 0 C0.66 0 1.32 0 2 0 C2 0.66 2 1.32 2 2 C1.34 2 0.68 2 0 2 C0 1.34 0 0.68 0 0 Z " fill="#000000" transform="translate(460,570)"/>
<path d="M0 0 C0.66 0 1.32 0 2 0 C2 0.66 2 1.32 2 2 C1.34 2 0.68 2 0 2 C0 1.34 0 0.68 0 0 Z " fill="#000000" transform="translate(670,568)"/>
<path d="M0 0 C0.66 0 1.32 0 2 0 C2 0.66 2 1.32 2 2 C1.34 2 0.68 2 0 2 C0 1.34 0 0.68 0 0 Z " fill="#000000" transform="translate(454,568)"/>
<path d="M0 0 C0.66 0 1.32 0 2 0 C2 0.66 2 1.32 2 2 C1.34 2 0.68 2 0 2 C0 1.34 0 0.68 0 0 Z " fill="#000000" transform="translate(610,562)"/>
<path d="M0 0 C0.66 0 1.32 0 2 0 C2 0.66 2 1.32 2 2 C1.34 2 0.68 2 0 2 C0 1.34 0 0.68 0 0 Z " fill="#000000" transform="translate(530,562)"/>
<path d="M0 0 C0.66 0 1.32 0 2 0 C2 0.66 2 1.32 2 2 C1.34 2 0.68 2 0 2 C0 1.34 0 0.68 0 0 Z " fill="#000000" transform="translate(370,562)"/>
<path d="M0 0 C0.66 0 1.32 0 2 0 C2 0.66 2 1.32 2 2 C1.34 2 0.68 2 0 2 C0 1.34 0 0.68 0 0 Z " fill="#000000" transform="translate(356,562)"/>
<path d="M0 0 C0.66 0 1.32 0 2 0 C2 0.66 2 1.32 2 2 C1.34 2 0.68 2 0 2 C0 1.34 0 0.68 0 0 Z " fill="#000000" transform="translate(712,556)"/>
<path d="M0 0 C0.66 0 1.32 0 2 0 C2 0.66 2 1.32 2 2 C1.34 2 0.68 2 0 2 C0 1.34 0 0.68 0 0 Z " fill="#000000" transform="translate(586,556)"/>
<path d="M0 0 C0.66 0 1.32 0 2 0 C2 0.66 2 1.32 2 2 C1.34 2 0.68 2 0 2 C0 1.34 0 0.68 0 0 Z " fill="#BF0000" transform="translate(718,552)"/>
<path d="M0 0 C0.66 0 1.32 0 2 0 C2 0.66 2 1.32 2 2 C1.34 2 0.68 2 0 2 C0 1.34 0 0.68 0 0 Z " fill="#000000" transform="translate(498,552)"/>
<path d="M0 0 C0.66 0 1.32 0 2 0 C2 0.66 2 1.32 2 2 C1.34 2 0.68 2 0 2 C0 1.34 0 0.68 0 0 Z " fill="#7F0000" transform="translate(588,550)"/>
<path d="M0 0 C0.66 0 1.32 0 2 0 C2 0.66 2 1.32 2 2 C1.34 2 0.68 2 0 2 C0 1.34 0 0.68 0 0 Z " fill="#000000" transform="translate(394,550)"/>
<path d="M0 0 C0.66 0 1.32 0 2 0 C2 0.66 2 1.32 2 2 C1.34 2 0.68 2 0 2 C0 1.34 0 0.68 0 0 Z " fill="#BF0000" transform="translate(714,548)"/>
<path d="M0 0 C0.66 0 1.32 0 2 0 C2 0.66 2 1.32 2 2 C1.34 2 0.68 2 0 2 C0 1.34 0 0.68 0 0 Z " fill="#000000" transform="translate(652,546)"/>
<path d="M0 0 C0.66 0 1.32 0 2 0 C2 0.66 2 1.32 2 2 C1.34 2 0.68 2 0 2 C0 1.34 0 0.68 0 0 Z " fill="#000000" transform="translate(716,544)"/>
<path d="M0 0 C0.66 0 1.32 0 2 0 C2 0.66 2 1.32 2 2 C1.34 2 0.68 2 0 2 C0 1.34 0 0.68 0 0 Z " fill="#000000" transform="translate(406,544)"/>
<path d="M0 0 C0.66 0 1.32 0 2 0 C2 0.66 2 1.32 2 2 C1.34 2 0.68 2 0 2 C0 1.34 0 0.68 0 0 Z " fill="#000000" transform="translate(612,540)"/>
<path d="M0 0 C0.66 0 1.32 0 2 0 C2 0.66 2 1.32 2 2 C1.34 2 0.68 2 0 2 C0 1.34 0 0.68 0 0 Z " fill="#000000" transform="translate(458,538)"/>
<path d="M0 0 C0.66 0 1.32 0 2 0 C2 0.66 2 1.32 2 2 C1.34 2 0.68 2 0 2 C0 1.34 0 0.68 0 0 Z " fill="#000000" transform="translate(418,538)"/>
<path d="M0 0 C0.66 0 1.32 0 2 0 C2 0.66 2 1.32 2 2 C1.34 2 0.68 2 0 2 C0 1.34 0 0.68 0 0 Z " fill="#000000" transform="translate(430,532)"/>
<path d="M0 0 C0.66 0 1.32 0 2 0 C2 0.66 2 1.32 2 2 C1.34 2 0.68 2 0 2 C0 1.34 0 0.68 0 0 Z " fill="#3F0000" transform="translate(614,528)"/>
<path d="M0 0 C0.66 0 1.32 0 2 0 C2 0.66 2 1.32 2 2 C1.34 2 0.68 2 0 2 C0 1.34 0 0.68 0 0 Z " fill="#000000" transform="translate(438,528)"/>
<path d="M0 0 C0.66 0 1.32 0 2 0 C2 0.66 2 1.32 2 2 C1.34 2 0.68 2 0 2 C0 1.34 0 0.68 0 0 Z " fill="#000000" transform="translate(462,522)"/>
<path d="M0 0 C0.66 0 1.32 0 2 0 C2 0.66 2 1.32 2 2 C1.34 2 0.68 2 0 2 C0 1.34 0 0.68 0 0 Z " fill="#000000" transform="translate(460,520)"/>
<path d="M0 0 C0.66 0 1.32 0 2 0 C2 0.66 2 1.32 2 2 C1.34 2 0.68 2 0 2 C0 1.34 0 0.68 0 0 Z " fill="#000000" transform="translate(448,520)"/>
<path d="M0 0 C0.66 0 1.32 0 2 0 C2 0.66 2 1.32 2 2 C1.34 2 0.68 2 0 2 C0 1.34 0 0.68 0 0 Z " fill="#000000" transform="translate(452,512)"/>
</svg>
